<svg xmlns="http://www.w3.org/2000/svg" width="54" height="36" viewBox="0 0 54 36">
  <path fill="#3C425B" fill-rule="evenodd" d="M27,30 L32.1961524,21 L35.4075528,26.5623087 C33.242399,28.6885713 30.2743498,30 27,30 Z M23.7870305,29.5650264 C20.7281981,28.7170698 18.1603854,26.6881296 16.6053863,24 L27,24 L23.7870305,29.5650264 Z M28.4499408,6.08670503 L22.5538476,16.2990381 L18.5924472,9.43769132 C20.757601,7.31142872 23.7256502,6 27,6 C27.4907514,6 27.9746223,6.02945898 28.4499408,6.08670503 Z M31.4679517,6.8593568 C33.9712585,7.86423359 36.0574171,9.68838593 37.3946137,12 L28.5,12 L31.4679517,6.8593568 Z M37.393458,24.0019973 L32.1961524,15 L38.6219475,15 C38.868741,15.9588598 39,16.9641013 39,18 C39,20.1865474 38.4151933,22.2365058 37.393458,24.0019973 Z M16.606542,11.9980027 L21.8038476,21 L15.3780525,21 C15.131259,20.0411402 15,19.0358987 15,18 C15,15.8134526 15.5848067,13.7634942 16.606542,11.9980027 Z M48,21 C48,19.3431458 49.3431458,18 51,18 C49.3431458,18 48,16.6568542 48,15 L48,6 C48,4.34314575 46.6568542,3 45,3 L42,3 L42,0 L45,0 C48.3137085,0 51,2.6862915 51,6 L51,14.25 C51,15.9068542 52.3431458,17.25 54,17.25 L54,18.75 C52.3431458,18.75 51,20.0931458 51,21.75 L51,30 C51,33.3137085 48.3137085,36 45,36 L42,36 L42,33 L45,33 C46.6568542,33 48,31.6568542 48,30 L48,21 Z M3,18 C4.65685425,18 6,19.3431458 6,21 L6,30 C6,31.6568542 7.34314575,33 9,33 L12,33 L12,36 L9,36 C5.6862915,36 3,33.3137085 3,30 L3,21.75 C3,20.0931458 1.65685425,18.75 0,18.75 L0,17.25 C1.65685425,17.25 3,15.9068542 3,14.25 L3,6 C3,2.6862915 5.6862915,0 9,0 L12,0 L12,3 L9,3 C7.34314575,3 6,4.34314575 6,6 L6,15 C6,16.6568542 4.65685425,18 3,18 Z"/>
</svg>
