<svg xmlns="http://www.w3.org/2000/svg" width="237" height="48" viewBox="0 0 237 48">
  <g fill="none" fill-rule="evenodd">
    <text fill="#FFF" font-family="Roboto" font-size="32" font-weight="500">
      <tspan x="88" y="34">Camera</tspan> <tspan x="199.484" y="34" font-family="Roboto" font-weight="400">Kit</tspan>
    </text>
    <path fill="#F44336" d="M8,28 L8,20 C8,22.209139 6.209139,24 4,24 L4,22 L4,26 L4,24 C6.209139,24 8,25.790861 8,28 Z M12,0 L16,0 L16,48 L12,48 C7.581722,48 4,44.418278 4,40 L4,8 C4,3.581722 7.581722,0 12,0 Z M12,4 C9.790861,4 8,5.790861 8,8 L8,40 C8,42.209139 9.790861,44 12,44 L16,44 L16,4 L12,4 Z M4,29 C4,26.790861 2.209139,25 0,25 L0,23 C2.209139,23 4,21.209139 4,19 L4,29 Z"/>
    <path fill="#F44336" d="M64,28 L64,20 C64,22.209139 62.209139,24 60,24 L60,22 L60,26 L60,24 C62.209139,24 64,25.790861 64,28 Z M68,0 L72,0 L72,48 L68,48 C63.581722,48 60,44.418278 60,40 L60,8 C60,3.581722 63.581722,0 68,0 Z M68,4 C65.790861,4 64,5.790861 64,8 L64,40 C64,42.209139 65.790861,44 68,44 L72,44 L72,4 L68,4 Z M60,29 C60,26.790861 58.209139,25 56,25 L56,23 C58.209139,23 60,21.209139 60,19 L60,29 Z" transform="matrix(-1 0 0 1 128 0)"/>
    <path fill="#FFF" d="M36,40 L42.9282032,28 L47.2100705,35.4164116 C44.3231987,38.2514284 40.3657998,40 36,40 Z M31.7160407,39.4200352 C27.6375992,38.2894268 24.21385,35.5841751 22.1405177,32.0000045 L36,32 L31.7160407,39.4200352 Z M36,8 L29.0717968,20 L24.7899295,12.5835884 C27.6768013,9.74857163 31.6342002,8 36,8 Z M40.2839593,8.57996484 C44.3624008,9.71057317 47.78615,12.4158249 49.8594823,15.9999955 L36,16 L40.2839593,8.57996484 Z M49.857944,32.0026631 L42.9282032,20 L51.4959301,20 C51.824988,21.2784797 52,22.6188017 52,24 C52,26.9153965 51.2202578,29.6486744 49.857944,32.0026631 Z M22.142056,15.9973369 L29.0717968,28 L20.5040699,28 C20.175012,26.7215203 20,25.3811983 20,24 C20,21.0846035 20.7797422,18.3513256 22.142056,15.9973369 Z"/>
  </g>
</svg>
