<svg class="ic-capture feature-icon" viewBox="-20 -20 96 92">
  <defs>
    <circle id="ic_capture-a" cx="20.4" cy="20.4" r="6.4"/>
  </defs>
  <g fill="none" fill-rule="evenodd">
    <path class="video" fill="#F44336" fill-opacity=".2" d="M48,9 L48,2 C48,0.8 47.2,0 46,0 L18,0 C16.8,0 16,0.8 16,2 L16,26 C16,27.2 16.8,28 18,28 L46,28 C47.2,28 48,27.2 48,26 L48,19 L56,27 L56,1 L48,9 L48,9 Z"/>
    <g class="camera" transform="translate(0 16)">
      <path fill="#F44336" d="M14,0 L26,0 L29.6,4 L36,4 C38.2,4 40,5.8 40,8 L40,32 C40,34.2 38.2,36 36,36 L4,36 C1.8,36 0,34.2 0,32 L0,8 C0,5.8 1.8,4 4,4 L10.4,4 L14,0 Z M20.5,31 C26.2989899,31 31,26.2989899 31,20.5 C31,14.7010101 26.2989899,10 20.5,10 C14.7010101,10 10,14.7010101 10,20.5 C10,26.2989899 14.7010101,31 20.5,31 Z"/>
      <use fill="#F44336" fill-opacity=".2" xlink:href="#ic_capture-a"/>
      <circle cx="20.4" cy="20.4" r="8.4" stroke="#FFF" stroke-width="4"/>
    </g>
  </g>
</svg>
