<svg xmlns="http://www.w3.org/2000/svg" width="72" height="72" viewBox="0 0 72 72">
  <g fill="#F44336" fill-rule="evenodd">
    <g opacity=".2">
      <path fill-rule="nonzero" d="M5.11038203,3 L15.9987254,13.8895351 L13.8881245,16 L3,5.11068379 L3,16 L0,16 L0,0 L1.5,0 L16,0 L16,3 L5.11038203,3 Z"/>
      <path d="M66.8883434 3L56 13.8895351 58.1106009 16 68.9987254 5.11068379 68.9987254 16 71.9987254 16 71.9987254 1.5 71.9987254 0 55.9987254 0 55.9987254 3 66.8883434 3zM5.11038203 69L15.9987254 58.1104649 13.8881245 56 3 66.8893162 3 56 0 56 0 70.5 0 72 16 72 16 69 5.11038203 69zM66.8883434 69L56 58.1104649 58.1106009 56 68.9987254 66.8893162 68.9987254 56 71.9987254 56 71.9987254 72 70.4987254 72 55.9987254 72 55.9987254 69 66.8883434 69z"/>
    </g>
    <rect width="32" height="32" x="20" y="20" rx="4"/>
  </g>
</svg>
