<svg xmlns="http://www.w3.org/2000/svg" width="24" height="30" viewBox="0 0 24 30">
  <g fill="none" fill-rule="evenodd" transform="translate(-24 -21)">
    <rect width="72" height="72"/>
    <path fill="#6B60E9" fill-rule="nonzero" d="M48,34.5 C48,32.835 46.65,31.5 45,31.5 L35.52,31.5 L36.96,24.645 C36.99,24.495 37.005,24.33 37.005,24.165 C37.005,23.55 36.75,22.98 36.345,22.575 L34.755,21 L24.885,30.87 C24.33,31.425 24,32.175 24,33 L24,48 C24,49.6568542 25.3431458,51 27,51 L40.5,51 C41.745,51 42.81,50.25 43.26,49.17 L47.79,38.595 C47.925,38.25 48,37.89 48,37.5 L48,34.5 Z"/>
  </g>
</svg>
