<svg xmlns="http://www.w3.org/2000/svg" xmlns:xlink="http://www.w3.org/1999/xlink" width="66" height="66" viewBox="0 0 66 66">
  <defs>
    <circle id="ic_touch-a" cx="21" cy="21" r="21"/>
  </defs>
  <g fill="none" fill-rule="evenodd" transform="rotate(-45 38.657 13.186)">
    <use fill="#F44336" xlink:href="#ic_touch-a"/>
    <circle cx="21" cy="21" r="26" stroke="#F44336" stroke-opacity=".2" stroke-width="10"/>
    <path fill="#FFF" d="M12,57 L30,57 L30,21 C30,16.0294373 25.9705627,12 21,12 C16.0294373,12 12,16.0294373 12,21 L12,57 Z"/>
    <path fill="#F44336" fill-rule="nonzero" d="M21,9 C27.627417,9 33,14.372583 33,21 L33,57 L9,57 L9,21 C9,14.372583 14.372583,9 21,9 Z M12,57 L30,57 L30,21 C30,16.0294373 25.9705627,12 21,12 C16.0294373,12 12,16.0294373 12,21 L12,57 Z"/>
    <path stroke="#F44336" stroke-opacity=".197" stroke-width="3" d="M16.5,25.0197532 C17.9970866,24.6735857 19.4977003,24.5 21,24.5 C22.5022997,24.5 24.0029134,24.6735857 25.5,25.0197532 L25.5,21 C25.5,18.5147186 23.4852814,16.5 21,16.5 C18.5147186,16.5 16.5,18.5147186 16.5,21 L16.5,25.0197532 Z"/>
  </g>
</svg>
