<svg xmlns="http://www.w3.org/2000/svg" width="183" height="24" viewBox="0 0 183 24">
  <g fill="#263238" fill-rule="evenodd">
    <path d="M54.3467133 20.878496L57.4876077 13.0187502 60.5325969 20.878496 61.3957435 20.878496 65.9512391 9.30720349 65.9512391 9.08887722 63.9132542 9.08887722C63.3617995 10.6414196 62.7863684 12.1454451 62.2349137 13.6979875L60.9881465 17.4823096 60.9641702 17.4823096 57.8232758 9.37997892 57.0800107 9.37997892 53.9870689 17.4823096 53.9391163 17.4823096 52.7163254 13.6979875 51.0140086 9.08887722 49 9.08887722 49 9.30720349 53.5075431 20.878496 54.3467133 20.878496zM80.829861 14.9109112C80.829861 10.8597459 77.8088481 8.87055094 74.7638589 8.87055094 71.7188697 8.87055094 68.6499042 10.8354874 68.6499042 14.9109112 68.6499042 18.9620765 71.6709171 20.9755299 74.69193 20.9997884 77.7608955 21.0240469 80.829861 18.9620765 80.829861 14.9109112zM70.5440313 14.9109112C70.5440313 11.9513773 72.6299688 10.4958688 74.7398826 10.4958688 76.8497964 10.4958688 78.9597101 11.9513773 78.9597101 14.9109112 78.9597101 17.8947036 76.8737727 19.4229876 74.7638589 19.4229876 72.6539451 19.4229876 70.5440313 17.8947036 70.5440313 14.9109112zM95.9002932 20.7814621L95.9002932 13.8677968C95.9002932 11.0052967 94.3178579 8.87055094 91.2728687 8.87055094 89.6424808 8.87055094 88.2278795 9.25868654 87.1968989 10.8354874 87.1968989 8.57944924 85.4226532 8.87055094 84.0799808 9.06461874L84.1039571 10.5686442C85.326748 10.4473518 85.4466295 10.8597459 85.4466295 12.4365468L85.4466295 20.7814621 87.3167804 20.7814621 87.3167804 13.7707629C87.3167804 11.8058264 88.8033105 10.4473518 90.7693665 10.4473518 92.6634937 10.4473518 94.0061661 11.7573095 94.0061661 13.8677968L94.0061661 20.7814621 95.9002932 20.7814621zM109.484195 18.2828392C109.484195 20.8057206 110.563128 21.1453393 112.433279 20.8299791L112.409303 19.447246C110.754939 19.6413138 111.042654 18.5011655 111.042654 16.9243646L111.042654 3.02425847 109.172503 3.02425847 109.172503 10.0349577C107.997665 9.23442807 106.750898 8.87055094 105.552083 8.87055094 102.579023 8.84629247 99.9895833 11.1508476 99.9895833 14.9109112 99.9895833 18.1858053 101.859734 20.9997884 105.31232 20.9997884 107.158495 20.9755299 108.692978 20.0537079 109.484195 18.2828392zM109.220456 15.4203392C109.148527 17.5308265 107.781878 19.3016952 105.57606 19.3016952 103.082525 19.3016952 101.88371 17.2397248 101.88371 14.9109112 101.88371 12.1211866 103.610004 10.5686442 105.719917 10.5443857 106.846803 10.5201272 108.09357 10.9325213 109.220456 11.7815679L109.220456 15.4203392zM121.509638 8.87055094C118.344768 8.87055094 115.707375 10.9325213 115.587494 14.6198095 115.467613 18.5981994 118.176934 20.9997884 122.01314 20.9997884 123.427742 20.9997884 124.890296 20.6601698 126.256944 20.005191L125.969229 18.5739409C124.626556 19.1318859 123.379789 19.4229876 122.061093 19.4229876 119.447677 19.4229876 117.337763 17.8219282 117.457645 15.1292375L126.592612 15.1292375C127.239972 11.27214 125.44175 8.89480942 121.509638 8.87055094zM121.509638 10.3745764C123.5716 10.3745764 125.178011 11.4662078 125.05813 13.673729L117.529574 13.673729C117.841266 11.5632417 119.399725 10.3745764 121.509638 10.3745764zM133.031579 10.7384535C132.95965 8.94332637 131.688907 8.74925857 129.890685 9.06461874L129.914661 10.3260594C131.28131 10.2047671 131.305286 10.8597459 131.305286 11.9271188L131.305286 20.7814621 133.151461 20.7814621 133.151461 13.6009536C133.151461 11.7573095 134.685943 10.5686442 136.340308 10.5686442 137.22743 10.5686442 138.042624 10.8597459 138.78589 11.3449154L139.241439 9.74385604C138.450221 9.16165264 137.539122 8.87055094 136.532118 8.87055094 135.069564 8.87055094 133.726892 9.37997892 133.031579 10.7384535zM144.55352 13.9163137L144.55352 3.04851695 142.659393 3.04851695 142.659393 20.7814621 144.55352 20.7814621 144.55352 15.4688561 146.064027 15.4688561C146.567529 15.4688561 147.047055 15.4203392 147.478628 15.3233053L151.051095 20.7814621 152.993175 20.7814621 152.993175 20.5631359 149.109016 14.7411019C151.650503 13.7465044 152.44172 11.7573095 152.44172 9.08887722L150.643498 9.08887722C150.643498 12.4608052 149.252873 13.9163137 146.088003 13.9163137L144.55352 13.9163137zM156.602939 5.2317797C156.602939 6.85709752 158.976592 6.85709752 158.976592 5.2317797 158.976592 3.63072035 156.602939 3.63072035 156.602939 5.2317797zM158.712853 9.08887722L156.842702 9.08887722 156.842702 20.7814621 158.712853 20.7814621 158.712853 9.08887722zM163.617337 3L163.617337 16.3664197C163.617337 19.9809325 164.96001 21.2181147 168.484525 20.6359113L168.412596 19.2531782C165.99099 19.5685384 165.511464 19.0105935 165.511464 16.3664197L165.511464 3 163.617337 3zM182.5 20.7814621L182.5 13.8677968C182.5 11.0052967 180.917565 8.87055094 177.872575 8.87055094 176.242188 8.87055094 174.827586 9.25868654 173.796606 10.8354874 173.796606 8.57944924 172.02236 8.87055094 170.679688 9.06461874L170.703664 10.5686442C171.926455 10.4473518 172.046336 10.8597459 172.046336 12.4365468L172.046336 20.7814621 173.916487 20.7814621 173.916487 13.7707629C173.916487 11.8058264 175.403017 10.4473518 177.369073 10.4473518 179.2632 10.4473518 180.605873 11.7573095 180.605873 13.8677968L180.605873 20.7814621 182.5 20.7814621zM27.8859649 16.1612903L25.377193 6.58064516 22.2894737 11.8064516C22.0964912 12.1935484 22 12.5806452 22.0964912 12.9677419L22.1929825 13.2580645 24.8947368 9.29032258 26.8245614 17.7096774C26.6315789 18.0967742 25.2807018 20.1290323 24.7982456 20.7096774 24.5087719 21 24.122807 21.1935484 23.7368421 21.1935484 23.254386 21.1935484 22.7719298 20.8064516 22.5789474 20.2258065 22 18.5806452 16.6929825.0967741935 16.5964912 0 16.5964912.0967741935 11.1929825 18.5806452 10.6140351 20.2258065 10.4210526 20.9032258 10.0350877 21.1935484 9.45614035 21.1935484 9.07017544 21.1935484 8.68421053 21 8.39473684 20.7096774 7.9122807 20.1290323 6.56140351 18 6.36842105 17.7096774L8.29824561 9.29032258 11 13.2580645 11.0964912 12.9677419C11.1929825 12.5806452 11.0964912 12.1935484 10.9035088 11.8064516L7.81578947 6.48387097 5.30701754 16.0645161 0 8.32258065C0 8.32258065 2.02631579 18.0967742 2.21929825 18.5806452 2.31578947 18.9677419 2.50877193 19.3548387 2.70175439 19.6451613 2.89473684 19.8387097 3.28070175 20.2258065 3.85964912 20.3225806L4.14912281 20.3225806C4.72807018 20.3225806 5.11403509 20.1290323 5.21052632 19.9354839 5.30701754 19.8387097 5.40350877 19.7419355 5.5 19.6451613L6.27192982 20.9032258C6.36842105 21 6.36842105 21.1935484 6.46491228 21.2903226 7.04385965 22.3548387 8.00877193 23.9032258 9.55263158 24L9.84210526 24C10.7105263 24 11.9649123 23.7096774 12.8333333 21 13.7982456 18.0967742 16.4035088 10.2580645 16.5 10.2580645 16.5 10.2580645 19.1052632 18.0967742 20.1666667 21 21.0350877 23.7096774 22.2894737 24 23.1578947 24L23.4473684 24C24.9912281 23.9032258 25.9561404 22.3548387 26.5350877 21.2903226 26.6315789 21.1935484 26.7280702 21 26.7280702 20.9032258L27.5 19.6451613C27.5964912 19.7419355 27.6929825 19.8387097 27.7894737 19.9354839 27.8859649 20.0322581 28.3684211 20.3225806 28.8508772 20.3225806L29.1403509 20.3225806C29.7192982 20.2258065 30.1052632 19.8387097 30.2982456 19.6451613 30.4912281 19.3548387 30.6842105 18.9677419 30.7807018 18.5806452 30.9736842 18 33 8.32258065 33 8.32258065L27.8859649 16.1612903 27.8859649 16.1612903zM4.43859649 18.6774194C4.05263158 18.7741935 3.76315789 18.5806452 3.66666667 18.2903226L3.66666667 18.1935484C3.47368421 17.8064516 2.89473684 15.483871 2.50877193 14.3225806L4.8245614 18.1935484C4.63157895 18.5806452 4.53508772 18.6774194 4.43859649 18.6774194L4.43859649 18.6774194zM29.7192982 18.1935484C29.7192982 18.2903226 29.7192982 18.2903226 29.7192982 18.1935484 29.5263158 18.483871 29.2368421 18.7741935 28.8508772 18.6774194 28.754386 18.6774194 28.6578947 18.5806452 28.5614035 18.2903226L30.877193 14.4193548C30.4912281 15.483871 29.9122807 17.8064516 29.7192982 18.1935484L29.7192982 18.1935484z"/>
  </g>
</svg>
