<svg xmlns="http://www.w3.org/2000/svg" width="342" height="48" viewBox="0 0 342 48">
  <g fill="none">
    <g fill="#37444C" transform="translate(121.74)">
      <polygon points="8.557 21.635 26.922 21.635 26.922 15.165 8.557 15.165 8.557 7.026 28.591 7.026 28.591 0 .209 0 .209 37.983 29.009 37.983 29.009 30.957 8.557 30.957"/>
      <polygon points="56.557 10.504 48.209 10.504 43.409 17.67 38.609 10.504 29.983 10.504 39.026 23.513 29.148 37.983 37.565 37.983 43.339 29.287 49.043 37.983 57.67 37.983 47.513 23.374"/>
      <path d="M78.1913043 27.5478261C77.9826087 28.5913043 77.6347826 29.5652174 77.0782609 30.3304348 76.5913043 31.0956522 75.8956522 31.7913043 75.0608696 32.2782609 74.226087 32.7652174 73.1826087 33.0434783 71.9304348 33.0434783 70.7478261 33.0434783 69.7043478 32.7652174 68.8695652 32.2782609 68.0347826 31.7913043 67.3391304 31.1652174 66.8521739 30.3304348 66.3652174 29.5652174 65.9478261 28.5913043 65.7391304 27.5478261 65.5304348 26.5043478 65.3913043 25.3913043 65.3913043 24.2782609 65.3913043 23.1652174 65.5304348 22.0521739 65.7391304 21.0086957 65.9478261 19.9652174 66.2956522 18.9913043 66.8521739 18.226087 67.3391304 17.3913043 68.0347826 16.7652174 68.8695652 16.2086957 69.7043478 15.7217391 70.7478261 15.4434783 72 15.4434783 73.1826087 15.4434783 74.226087 15.7217391 75.0608696 16.2086957 75.8956522 16.6956522 76.5913043 17.3913043 77.0782609 18.226087 77.6347826 19.0608696 77.9826087 20.0347826 78.1913043 21.0782609 78.4 22.1217391 78.5391304 23.2347826 78.5391304 24.3478261 78.5391304 25.3913043 78.4 26.5043478 78.1913043 27.5478261M83.0608696 14.1913043C82.0173913 12.8695652 80.7652174 11.7565217 79.1652174 10.9217391 77.6347826 10.0869565 75.7565217 9.66956522 73.6 9.66956522 71.9304348 9.66956522 70.3304348 10.0173913 68.9391304 10.7130435 67.5478261 11.4086957 66.3652174 12.4521739 65.4608696 13.9826087L65.3217391 13.9826087 65.3217391 10.5043478 58.1565217 10.5043478 58.1565217 47.5826087 65.7391304 47.5826087 65.7391304 34.573913 65.8782609 34.573913C66.7826087 35.8956522 67.9652174 36.9391304 69.426087 37.6347826 70.8869565 38.3304348 72.4173913 38.6782609 74.1565217 38.6782609 76.173913 38.6782609 77.9130435 38.2608696 79.4434783 37.4956522 80.973913 36.7304348 82.226087 35.6869565 83.2 34.3652174 84.2434783 33.0434783 84.9391304 31.5130435 85.426087 29.8434783 85.9130435 28.173913 86.1913043 26.3652174 86.1913043 24.5565217 86.1913043 22.6086957 85.9130435 20.7304348 85.426087 18.9217391 84.8 17.1130435 84.0347826 15.5130435 83.0608696 14.1913043M94.1217391 21.2869565C94.1913043 20.7304348 94.2608696 20.173913 94.4695652 19.4782609 94.6782609 18.7826087 95.026087 18.1565217 95.5130435 17.5304348 96 16.9043478 96.626087 16.4173913 97.4608696 16 98.226087 15.5826087 99.2695652 15.373913 100.452174 15.373913 102.26087 15.373913 103.652174 15.8608696 104.556522 16.8347826 105.46087 17.8086957 106.086957 19.2695652 106.434783 21.2173913L94.1217391 21.2869565 94.1217391 21.2869565zM111.026087 14.7478261C109.913043 13.2173913 108.452174 12.0347826 106.713043 11.1304348 104.973913 10.226087 102.956522 9.80869565 100.591304 9.80869565 98.5043478 9.80869565 96.626087 10.1565217 94.8869565 10.9217391 93.1478261 11.6869565 91.6869565 12.6608696 90.4347826 13.9826087 89.1826087 15.3043478 88.2086957 16.8347826 87.5826087 18.573913 86.8869565 20.3130435 86.5391304 22.2608696 86.5391304 24.3478261 86.5391304 26.5043478 86.8869565 28.4521739 87.5130435 30.1913043 88.1391304 31.9304348 89.1130435 33.4608696 90.2956522 34.7826087 91.4782609 36.0347826 92.9391304 37.0086957 94.6782609 37.7043478 96.4173913 38.4 98.3652174 38.7478261 100.521739 38.7478261 103.652174 38.7478261 106.295652 38.0521739 108.521739 36.5913043 110.747826 35.2 112.347826 32.8347826 113.391304 29.4956522L106.852174 29.4956522C106.573913 30.3304348 105.947826 31.1652174 104.834783 31.9304348 103.721739 32.6956522 102.4 33.0434783 100.869565 33.0434783 98.7130435 33.0434783 97.1130435 32.4869565 96 31.373913 94.8869565 30.2608696 94.2608696 28.5217391 94.1217391 26.0869565L113.947826 26.0869565C114.086957 23.9304348 113.878261 21.9130435 113.391304 19.9652174 112.973913 18.0173913 112.13913 16.2782609 111.026087 14.7478261L111.026087 14.7478261zM138.991304 12.8695652C138.226087 11.8956522 137.252174 11.1304348 135.930435 10.573913 134.608696 10.0173913 133.008696 9.73913043 130.991304 9.73913043 129.391304 9.73913043 127.86087 10.0869565 126.330435 10.8521739 124.8 11.5478261 123.547826 12.7304348 122.643478 14.3304348L122.504348 14.3304348 122.504348 10.5043478 115.33913 10.5043478 115.33913 37.9826087 122.921739 37.9826087 122.921739 23.5826087C122.921739 20.8 123.408696 18.7826087 124.313043 17.5304348 125.217391 16.2782609 126.747826 15.7217391 128.765217 15.7217391 130.573913 15.7217391 131.826087 16.2782609 132.521739 17.3913043 133.217391 18.5043478 133.565217 20.173913 133.565217 22.4695652L133.565217 37.9826087 141.147826 37.9826087 141.147826 21.0782609C141.147826 19.4086957 141.008696 17.8086957 140.730435 16.4173913 140.313043 15.026087 139.756522 13.8434783 138.991304 12.8695652M164.452174 23.7217391C163.617391 23.1652174 162.713043 22.6782609 161.669565 22.3304348 160.626087 21.9826087 159.582609 21.7043478 158.469565 21.426087 157.426087 21.1478261 156.382609 20.9391304 155.33913 20.7304348 154.295652 20.5217391 153.391304 20.2434783 152.626087 20.0347826 151.86087 19.7565217 151.165217 19.4086957 150.678261 18.9913043 150.191304 18.573913 149.913043 18.0173913 149.913043 17.3217391 149.913043 16.7652174 150.052174 16.2782609 150.330435 16 150.608696 15.6521739 150.956522 15.373913 151.373913 15.2347826 151.791304 15.026087 152.208696 14.9565217 152.695652 14.8869565 153.182609 14.8173913 153.669565 14.8173913 154.086957 14.8173913 155.408696 14.8173913 156.591304 15.0956522 157.565217 15.5826087 158.53913 16.0695652 159.095652 17.1130435 159.234783 18.5043478L166.4 18.5043478C166.26087 16.8347826 165.843478 15.373913 165.078261 14.2608696 164.382609 13.1478261 163.408696 12.2434783 162.365217 11.5478261 161.252174 10.8521739 160 10.3652174 158.608696 10.0869565 157.217391 9.80869565 155.756522 9.66956522 154.295652 9.66956522 152.834783 9.66956522 151.373913 9.80869565 149.913043 10.0869565 148.521739 10.3652174 147.2 10.7826087 146.086957 11.4782609 144.973913 12.1043478 144.069565 13.0086957 143.373913 14.1913043 142.678261 15.3043478 142.330435 16.7652174 142.330435 18.573913 142.330435 19.7565217 142.608696 20.8 143.095652 21.6347826 143.582609 22.4695652 144.278261 23.1652174 145.043478 23.7217391 145.878261 24.2782609 146.782609 24.6956522 147.826087 25.0434783 148.869565 25.3913043 149.913043 25.6695652 151.026087 25.9478261 153.73913 26.5043478 155.826087 27.0608696 157.356522 27.6173913 158.886957 28.173913 159.582609 29.0086957 159.582609 30.1913043 159.582609 30.8869565 159.443478 31.4434783 159.095652 31.8608696 158.747826 32.2782609 158.4 32.626087 157.913043 32.9043478 157.426087 33.1826087 156.869565 33.3913043 156.313043 33.4608696 155.756522 33.6 155.2 33.6695652 154.643478 33.6695652 153.878261 33.6695652 153.182609 33.6 152.486957 33.3913043 151.791304 33.1826087 151.165217 32.973913 150.678261 32.5565217 150.121739 32.2086957 149.704348 31.7217391 149.356522 31.0956522 149.008696 30.5391304 148.869565 29.8434783 148.869565 29.0086957L141.704348 29.0086957C141.773913 30.8869565 142.191304 32.4173913 142.956522 33.6 143.721739 34.8521739 144.695652 35.826087 145.878261 36.5217391 147.06087 37.2869565 148.452174 37.773913 149.913043 38.1217391 151.443478 38.4695652 152.973913 38.6086957 154.573913 38.6086957 156.104348 38.6086957 157.634783 38.4695652 159.165217 38.1913043 160.695652 37.9130435 162.017391 37.3565217 163.2 36.5913043 164.382609 35.826087 165.286957 34.8521739 166.052174 33.6695652 166.747826 32.4173913 167.165217 30.9565217 167.165217 29.1478261 167.165217 27.8956522 166.886957 26.7826087 166.4 25.9478261 165.982609 25.0434783 165.286957 24.3478261 164.452174 23.7217391"/>
      <rect width="7.583" height="6.191" x="167.93"/>
      <rect width="7.583" height="27.478" x="167.93" y="10.504"/>
      <path d="M212.104348,10.5043478 L206.121739,29.3565217 L205.982609,29.3565217 L199.791304,10.5043478 L193.73913,10.5043478 L191.721739,10.5043478 L188.452174,10.5043478 L188.452174,8.83478261 C188.452174,7.72173913 188.66087,6.88695652 189.147826,6.4 C189.565217,5.91304348 190.330435,5.70434783 191.373913,5.70434783 C192.347826,5.70434783 193.252174,5.77391304 194.156522,5.84347826 L194.156522,0.208695652 C193.530435,0.139130435 192.834783,0.139130435 192.208696,0.0695652174 C191.513043,-2.77555756e-17 190.886957,-2.77555756e-17 190.191304,-2.77555756e-17 C187.130435,-2.77555756e-17 184.834783,0.765217391 183.304348,2.36521739 C181.773913,3.89565217 181.008696,5.91304348 181.008696,8.34782609 L181.008696,10.5043478 L176.417391,10.5043478 L176.417391,15.5826087 L180.93913,15.5826087 L180.93913,37.9826087 L188.521739,37.9826087 L188.521739,15.5130435 L193.669565,15.5130435 L201.391304,36.2434783 C201.6,36.8 201.73913,37.3565217 201.73913,37.9130435 C201.73913,38.7478261 201.530435,39.4434783 201.043478,40.1391304 C200.556522,40.8347826 199.86087,41.1826087 198.817391,41.3217391 C198.052174,41.3913043 197.356522,41.3217391 196.591304,41.2521739 C195.826087,41.1826087 195.130435,41.1130435 194.434783,41.0434783 L194.434783,47.2347826 C195.2,47.3043478 195.965217,47.373913 196.730435,47.4434783 C197.495652,47.5130435 198.26087,47.5130435 199.026087,47.5130435 C201.6,47.5130435 203.617391,47.026087 205.078261,46.0521739 C206.53913,45.0782609 207.652174,43.4782609 208.486957,41.2521739 L219.965217,10.3652174 L212.104348,10.3652174 L212.104348,10.5043478 Z"/>
    </g>
    <path fill="#00A7DA" d="M117.773913,34.3652174 C117.773913,36.3130435 116.173913,37.9130435 114.226087,37.9130435 L83.4086957,37.9130435 C81.4608696,37.9130435 79.8608696,36.3130435 79.8608696,34.3652174 L79.8608696,3.54782609 C79.8608696,1.6 81.4608696,0 83.4086957,0 L114.226087,0 C116.173913,0 117.773913,1.6 117.773913,3.54782609 L117.773913,34.3652174 Z"/>
    <path fill="#ABBF00" d="M77.8434783,34.3652174 C77.8434783,36.3130435 76.2434783,37.9130435 74.2956522,37.9130435 L43.4782609,37.9130435 C41.5304348,37.9130435 39.9304348,36.3130435 39.9304348,34.3652174 L39.9304348,3.54782609 C39.9304348,1.6 41.5304348,0 43.4782609,0 L74.2956522,0 C76.2434783,0 77.8434783,1.6 77.8434783,3.54782609 L77.8434783,34.3652174 L77.8434783,34.3652174 Z"/>
    <path fill="#FFD100" d="M37.9130435,34.3652174 C37.9130435,36.3130435 36.3130435,37.9130435 34.3652174,37.9130435 L3.54782609,37.9130435 C1.6,37.9130435 0,36.3130435 0,34.3652174 L0,3.54782609 C0,1.6 1.6,0 3.54782609,0 L34.3652174,0 C36.3130435,0 37.9130435,1.6 37.9130435,3.54782609 L37.9130435,34.3652174 Z"/>
    <path fill="#FFF" d="M109.773913,5.63478261 C111.513043,3.89565217 114.086957,6.46956522 112.278261,8.27826087 L105.113043,15.4434783 L109.147826,31.5130435 L106.504348,34.1565217 L99.826087,20.8695652 L94.4695652,26.226087 L94.9565217,30.3304348 L92.8695652,32.4173913 L90.4347826,27.7565217 L85.773913,25.3217391 L87.8608696,23.2347826 L91.9652174,23.7217391 L97.3217391,18.3652174 L84.0347826,11.6869565 L86.6782609,9.04347826 L102.608696,12.8695652 L109.773913,5.63478261 Z"/>
    <path fill="#37444C" d="M61.4956522 6.67826087L61.4956522 22.5391304 63.2347826 22.5391304 63.2347826 32.973913C63.2347826 35.2695652 66.5043478 35.3391304 66.5043478 32.973913L66.5043478 6.67826087C66.5043478 2.92173913 61.4956522 2.92173913 61.4956522 6.67826087L61.4956522 6.67826087zM57.7391304 13.9826087C57.7391304 14.9565217 56.8347826 16.0695652 55.6521739 16.0695652L55.6521739 33.0434783C55.6521739 35.4782609 52.3826087 35.4782609 52.3826087 33.0434783L52.3826087 16C51.2 16 50.226087 15.0956522 50.226087 13.773913L50.226087 4.45217391C50.226087 3.6173913 51.4086957 3.6173913 51.4086957 4.45217391L51.4086957 11.3391304 52.3826087 11.3391304 52.3826087 4.3826087C52.3826087 3.6173913 53.4956522 3.6173913 53.4956522 4.3826087L53.4956522 11.3391304 54.5391304 11.3391304 54.5391304 4.3826087C54.5391304 3.6173913 55.6521739 3.54782609 55.6521739 4.3826087L55.6521739 11.2695652 56.626087 11.2695652 56.626087 4.31304348C56.626087 3.54782609 57.7391304 3.47826087 57.7391304 4.31304348L57.7391304 13.9826087zM29.6347826 23.0956522C28.4521739 23.0956522 27.4782609 22.1217391 27.4782609 20.8695652 27.4782609 19.6173913 28.4521739 18.6434783 29.6347826 18.6434783 30.8173913 18.6434783 31.7913043 19.6173913 31.7913043 20.8695652 31.7913043 22.1217391 30.8173913 23.0956522 29.6347826 23.0956522L29.6347826 23.0956522zM19.0608696 16.2086957L19.0608696 16.2086957 19.0608696 16.2086957 9.04347826 16.2086957 10.9217391 11.0608696C11.1304348 10.3652174 11.5478261 9.80869565 12.3826087 9.80869565L19.0608696 9.80869565 19.0608696 9.80869565 19.0608696 9.80869565 25.7391304 9.80869565C26.573913 9.80869565 26.9217391 10.3652174 27.2 11.0608696L29.0782609 16.2086957 19.0608696 16.2086957zM8.48695652 23.0956522C7.30434783 23.0956522 6.33043478 22.1217391 6.33043478 20.8695652 6.33043478 19.6173913 7.30434783 18.6434783 8.48695652 18.6434783 9.66956522 18.6434783 10.6434783 19.6173913 10.6434783 20.8695652 10.6434783 22.1217391 9.66956522 23.0956522 8.48695652 23.0956522L8.48695652 23.0956522zM31.7217391 16.2782609L29.2173913 9.73913043C28.7304348 8.48695652 27.6869565 7.44347826 25.7391304 7.44347826L22.1913043 7.44347826 22.1913043 7.44347826 22.1913043 5.42608696C22.1913043 5.07826087 21.9130435 4.8 21.5652174 4.8L16.6956522 4.8C16.3478261 4.8 16.0695652 5.07826087 16.0695652 5.42608696L16.0695652 7.37391304 12.4521739 7.37391304C10.5043478 7.37391304 9.46086957 8.4173913 8.97391304 9.66956522L6.46956522 16.2086957C5.49565217 16.3478261 3.68695652 17.5304348 3.68695652 19.7565217L3.68695652 28.1043478 6.12173913 28.1043478 6.12173913 30.7478261C6.12173913 34.0173913 10.7826087 34.0173913 10.7826087 30.7478261L10.7826087 28.1043478 19.1304348 28.1043478 19.1304348 28.1043478 19.1304348 28.1043478 27.4782609 28.1043478 27.4782609 30.7478261C27.4782609 34.0173913 32.1391304 34.0173913 32.1391304 30.7478261L32.1391304 28.1043478 34.573913 28.1043478 34.573913 19.7565217C34.5043478 17.6 32.6956522 16.4173913 31.7217391 16.2782609L31.7217391 16.2782609z"/>
  </g>
</svg>
