<?xml version="1.0" encoding="UTF-8" standalone="no"?><!DOCTYPE svg PUBLIC "-//W3C//DTD SVG 1.1//EN" "http://www.w3.org/Graphics/SVG/1.1/DTD/svg11.dtd"><svg width="100%" height="100%" viewBox="0 0 131 46" version="1.1" xmlns="http://www.w3.org/2000/svg" xmlns:xlink="http://www.w3.org/1999/xlink" xml:space="preserve" xmlns:serif="http://www.serif.com/" style="fill-rule:evenodd;clip-rule:evenodd;stroke-linejoin:round;stroke-miterlimit:1.41421;"><g id="infitting-logo"><path d="M20.643,15.763c1.22,-0.968 2.511,-1.722 4.018,-1.722c1.291,0 2.044,0.611 1.722,1.973l-0.36,1.614c1.508,-2.153 3.804,-3.587 5.883,-3.587c1.902,0 3.266,1.507 2.441,5.274l-1.759,8.25c-0.215,1.04 0.251,1.471 0.969,1.471c1.327,0 2.87,-0.897 3.766,-1.794c0.396,0.18 0.611,0.503 0.611,0.861c0,0.251 -0.108,0.539 -0.323,0.79c-1.685,1.901 -4.09,3.55 -6.493,3.55c-1.794,0 -3.695,-0.896 -2.799,-5.093l1.508,-7.139c0.322,-1.507 -0.18,-2.116 -0.969,-2.116c-0.968,0 -2.404,0.897 -3.192,1.865l-2.19,10.224c-0.358,1.65 -1.722,2.259 -3.013,2.259c-0.645,0 -1.256,-0.178 -1.685,-0.466l2.941,-13.775c0.144,-0.574 -0.036,-0.897 -0.359,-0.897c-0.18,0 -0.394,0.144 -0.717,0.431c-0.466,-0.288 -0.717,-1.399 0,-1.973Z" style="fill:#3d3d3d;fill-rule:nonzero;"/><path d="M41.228,12.352c-0.539,0.25 -1.042,0.358 -1.508,0.358c-1.865,0 -3.049,-1.618 -2.941,-3.336c0.276,-4.397 4.278,-5.293 7.687,-5.332c7.119,-0.082 10.86,6.338 14.108,1.024c0,0 1.872,2.259 0.671,5.367c-0.755,1.954 -2.895,2.326 -4.678,1.712c-2.197,-0.756 -3.566,-4.255 -6.341,-4.407l-1.626,7.564c3.604,3.384 5.16,-1.462 9.009,-0.299c0,0 -2.662,0.968 -4.336,2.706c-1.102,1.145 -3.477,2.562 -5.352,0.691l-3.398,15.938c-1.796,9.02 -5.911,8.242 -6.306,7.954l7.873,-35.217c-2.145,-0.367 -3.684,0.974 -3.581,3.196c0.028,0.608 0.216,1.505 0.719,2.081Z" style="fill:#3d3d3d;fill-rule:nonzero;"/><path d="M50.524,19.353c0.108,-0.574 0.87,-3.474 3.981,-4.158c1.261,-0.277 1.213,-0.543 0.925,0.819l-2.188,10.367c-0.43,2.01 0.144,2.655 1.077,2.655c1.327,0 2.87,-0.897 3.766,-1.794c0.395,0.18 0.609,0.503 0.609,0.861c0,0.251 -0.106,0.539 -0.322,0.79c-1.686,1.901 -4.09,3.55 -6.494,3.55c-1.793,0 -3.873,-1.003 -3.192,-4.267l1.838,-8.823Z" style="fill:#3d3d3d;fill-rule:nonzero;"/><g><path d="M82.14,11.925c1.399,0 2.582,-1.113 2.798,-2.512c0.144,-1.399 -0.897,-2.511 -2.296,-2.511c-1.399,0 -2.583,1.111 -2.726,2.511c-0.217,1.399 0.825,2.512 2.224,2.512Z" style="fill:#3d3d3d;fill-rule:nonzero;"/><path d="M86.05,27.242c-0.897,0.897 -2.439,1.794 -3.767,1.794c-0.933,0 -1.507,-0.645 -1.076,-2.655l2.153,-10.187c0.286,-1.364 -0.431,-1.973 -1.722,-1.973l-7.785,0l1.005,-4.737c-0.431,-0.286 -1.042,-0.465 -1.687,-0.465c-1.291,0 -2.655,0.61 -3.013,2.26l-0.646,2.942l-0.718,0l-3.949,0l1.004,-4.736c-0.43,-0.287 -1.041,-0.466 -1.686,-0.466c-1.292,0 -2.655,0.61 -3.013,2.261l-0.646,2.941l-0.719,0c-1.111,0 -1.685,0.932 -1.505,2.08l1.793,0l-2.296,10.834c-0.825,3.946 0.609,5.309 2.798,5.309c2.085,0 4.413,-1.242 6.095,-2.813c0.364,2.198 2.151,2.813 3.523,2.813c2.01,0 4.951,-1.686 4.951,-4.196c0,-0.611 -0.394,-0.969 -1.076,-0.969c-0.538,1.291 -1.363,1.721 -2.008,1.721c-0.719,0 -1.185,-0.788 -0.79,-2.619l2.116,-10.08l4.808,0c0.574,0 0.897,0.288 0.754,0.897l-2.296,10.978c-0.683,3.265 1.399,4.268 3.192,4.268c2.403,0 4.807,-1.649 6.494,-3.551c0.214,-0.251 0.322,-0.538 0.322,-0.79c0,-0.358 -0.216,-0.681 -0.61,-0.861Zm-19.264,-0.107c-0.035,0.163 -0.055,0.313 -0.08,0.468c-0.913,0.761 -2.22,1.433 -3.369,1.433c-0.932,0 -1.507,-0.645 -1.076,-2.655l2.116,-10.08l4.705,0l-2.296,10.834Z" style="fill:#3d3d3d;fill-rule:nonzero;"/></g><path d="M86.562,15.763c1.22,-0.968 2.511,-1.722 4.018,-1.722c1.292,0 2.045,0.611 1.722,1.973l-0.359,1.614c1.507,-2.153 3.803,-3.587 5.883,-3.587c1.901,0 3.266,1.507 2.44,5.274l-1.758,8.25c-0.215,1.04 0.251,1.471 0.968,1.471c1.328,0 2.87,-0.897 3.767,-1.794c0.396,0.18 0.611,0.503 0.611,0.861c0,0.251 -0.108,0.539 -0.323,0.79c-1.686,1.901 -4.09,3.55 -6.494,3.55c-1.793,0 -3.695,-0.896 -2.798,-5.093l1.507,-7.139c0.323,-1.507 -0.179,-2.116 -0.968,-2.116c-0.968,0 -2.404,0.897 -3.193,1.865l-2.189,10.224c-0.358,1.65 -1.722,2.259 -3.013,2.259c-0.645,0 -1.256,-0.178 -1.686,-0.466l2.942,-13.775c0.143,-0.574 -0.037,-0.897 -0.359,-0.897c-0.18,0 -0.395,0.144 -0.717,0.431c-0.467,-0.288 -0.718,-1.399 -0.001,-1.973Z" style="fill:#3d3d3d;fill-rule:nonzero;"/><path d="M116.706,28.713c-0.359,1.651 -0.754,3.408 -1.22,5.13c3.91,0.251 7.748,0.825 10.367,0.825c1.579,0 3.229,-0.323 4.234,-1.04c1.04,3.013 -0.394,5.345 -2.907,5.345c-3.767,0 -7.856,-1.722 -12.448,-2.583c-1.721,5.165 -4.448,9.579 -9.721,9.579c-2.044,0 -4.126,-1.795 -4.126,-4.414c0,-5.021 4.735,-7.461 10.332,-7.748c0.431,-1.399 0.86,-2.941 1.362,-4.699c-1.47,1.973 -3.3,3.335 -5.237,3.335c-3.73,0 -4.484,-3.73 -4.484,-6.026c0,-6.277 4.053,-12.519 9.041,-12.519c1.614,0 2.762,0.394 3.658,1.183c0.609,-0.717 1.579,-1.04 2.476,-1.04c0.646,0 1.255,0.179 1.686,0.466l-3.013,14.206Zm-6.171,7.211l-0.717,0c-3.516,0 -6.028,2.259 -6.028,5.166c0,1.148 0.862,1.685 1.472,1.685c2.297,0 3.694,-2.08 5.273,-6.851Zm4.341,-19.05c-0.609,-0.214 -1.148,-0.286 -1.686,-0.286c-4.34,0 -5.882,5.668 -5.882,9.578c0,1.794 0.823,2.584 1.936,2.584c1.148,0 2.655,-0.933 3.624,-2.261l2.008,-9.615Z" style="fill:#3d3d3d;fill-rule:nonzero;"/><path d="M22.331,1.165c-1.458,0.972 -6.676,0.077 -8.336,0.006c-1.659,-0.071 -9.807,-1.705 -12.773,5.657c-1.814,4.502 0.45,9.745 3.3,10.733c1.952,0.678 3.037,-0.878 3.037,-0.878c-3.814,-3.617 -2.083,-13.907 7.115,-13.201c0.825,0.063 1.628,0.1 2.369,0.118l-7.506,30.856c0.395,0.288 4.81,0.768 6.397,-6.312l5.393,-24.688c1.949,-0.593 1.004,-2.291 1.004,-2.291Z" style="fill:#3d3d3d;fill-rule:nonzero;"/></g></svg>