<?xml version="1.0" encoding="UTF-8" standalone="no"?><!DOCTYPE svg PUBLIC "-//W3C//DTD SVG 1.1//EN" "http://www.w3.org/Graphics/SVG/1.1/DTD/svg11.dtd"><svg width="100%" height="100%" viewBox="0 0 1204 240" version="1.1" xmlns="http://www.w3.org/2000/svg" xmlns:xlink="http://www.w3.org/1999/xlink" xml:space="preserve" xmlns:serif="http://www.serif.com/" style="fill-rule:evenodd;clip-rule:evenodd;stroke-linejoin:round;stroke-miterlimit:1.41421;"><g id="camerakit-logo"><g transform="matrix(1,0,0,1,-205.843,-98.3192)"><text x="667.207px" y="272.968px" style="font-family:'Roboto-Medium', 'Roboto';font-weight:500;font-size:160px;fill:#3c425b;">Camer<tspan x="1137.21px " y="272.968px ">a</tspan></text><text x="1223.77px" y="272.968px" style="font-family:'Roboto-Regular', 'Roboto';font-size:160px;fill:#3c425b;">Kit</text></g><g id="logo-mark"><path id="left-bracket" d="M21,40c0,-22.076 17.923,-40 40,-40l20,0l0,20l-20,0c-11.039,0 -20,8.962 -20,20l0,160c0,11.038 8.962,20 20,20l20,0l0,20l-20,0c-22.077,0 -40,-17.923 -40,-40l0,-55c0,-11.038 -8.962,-20 -20,-20l-0.008,0l0,-10l0.008,0c11.038,0 20,-8.962 20,-20l0,-55Zm20,60.129c-0.07,10.975 -8.998,19.865 -19.989,19.871l0,0c11.034,0.006 19.989,8.966 19.989,20l0,-40l0,0.129Z" style="fill:#3c425b;"/><path id="right-bracket" d="M340.992,40c0,-22.076 -17.923,-40 -40,-40l-20,0l0,20l20,0c11.039,0 20,8.962 20,20l0,160c0,11.038 -8.961,20 -20,20l-20,0l0,20l20,0c22.077,0 40,-17.923 40,-40l0,-55c0,-11.038 8.962,-20 20,-20l0.008,0l0,-10l-0.008,0c-11.038,0 -20,-8.962 -20,-20l0,-55Zm-19.999,60.129c0.069,10.975 8.998,19.865 19.988,19.871l0,0c-11.033,0.006 -19.989,8.966 -19.989,20l0,-40l0.001,0.129Z" style="fill:#3c425b;"/><path id="aperture" d="M237.047,177.076c-14.439,14.181 -34.227,22.932 -56.043,22.932l-0.008,0l34.645,-60.008l21.406,37.076Zm-77.468,20.026c-20.378,-5.659 -37.495,-19.188 -47.865,-37.102l69.286,0l-21.421,37.102Zm98.903,-97.102c1.649,6.394 2.526,13.098 2.526,20.004c0,14.569 -3.903,28.235 -10.72,40.006l-34.647,-60.01l42.841,0Zm-146.764,-19.999l34.641,59.999l-42.835,0c-1.648,-6.392 -2.524,-13.093 -2.524,-19.996c0,-14.569 3.902,-28.233 10.718,-40.003Zm34.641,19.999l-21.4,-37.066c14.437,-14.181 34.225,-22.933 56.041,-22.934l-34.641,60Zm56.059,-57.097c20.38,5.656 37.499,19.184 47.871,37.097l-69.289,0l21.418,-37.097Z" style="fill:#3c425b;"/></g></g></svg>