<svg xmlns="http://www.w3.org/2000/svg" width="18" height="32" viewBox="0 0 18 32">
  <g fill="none" fill-rule="evenodd" transform="translate(-27 -20)">
    <rect width="72" height="72"/>
    <path fill="#6B60E9" d="M36,20 C40.9705627,20 45,24.0294373 45,29 L45,43 C45,47.9705627 40.9705627,52 36,52 C31.0294373,52 27,47.9705627 27,43 L27,29 C27,24.0294373 31.0294373,20 36,20 Z M36,34 C38.7614237,34 41,31.7614237 41,29 C41,26.2385763 38.7614237,24 36,24 C33.2385763,24 31,26.2385763 31,29 C31,31.7614237 33.2385763,34 36,34 Z M36,48 C38.7614237,48 41,45.7614237 41,43 C41,40.2385763 38.7614237,38 36,38 C33.2385763,38 31,40.2385763 31,43 C31,45.7614237 33.2385763,48 36,48 Z M36,45 C34.8954305,45 34,44.1045695 34,43 C34,41.8954305 34.8954305,41 36,41 C37.1045695,41 38,41.8954305 38,43 C38,44.1045695 37.1045695,45 36,45 Z M36,31 C34.8954305,31 34,30.1045695 34,29 C34,27.8954305 34.8954305,27 36,27 C37.1045695,27 38,27.8954305 38,29 C38,30.1045695 37.1045695,31 36,31 Z"/>
  </g>
</svg>
