<svg xmlns="http://www.w3.org/2000/svg" width="24" height="24" viewBox="0 0 24 24">
  <path fill="#78839C" d="M22.3671253,5.99032346 C21.2951617,4.15364009 19.8411116,2.69953531 18.0045923,1.62768109 C16.1677995,0.55577221 14.1625695,0.0199544419 11.9874806,0.0199544419 C9.81266515,0.0199544419 7.80677904,0.555936219 5.97036902,1.62768109 C4.13368565,2.69948064 2.67969021,4.15364009 1.60772665,5.99032346 C0.535927107,7.82695216 0,9.83256492 0,12.0071071 C0,14.6192255 0.762095672,16.9681093 2.2866697,19.0543599 C3.81107973,21.1407745 5.7803918,22.584492 8.19444191,23.3856765 C8.47544419,23.4378314 8.68346241,23.4011481 8.81871526,23.2765558 C8.95402278,23.1517995 9.02159453,22.9955535 9.02159453,22.8084738 C9.02159453,22.7772574 9.01891572,22.4964191 9.0137221,21.965631 C9.00836446,21.4348428 9.00584966,20.9717904 9.00584966,20.5766925 L8.64683371,20.6387973 C8.41793166,20.6807289 8.12916629,20.6984966 7.78053759,20.693467 C7.43207289,20.6886014 7.07032346,20.652082 6.69578132,20.5841822 C6.32107517,20.5168838 5.97255581,20.3608018 5.64994989,20.1162642 C5.32750797,19.8717267 5.09860592,19.5516355 4.96329841,19.1564829 L4.8072164,18.797303 C4.70317995,18.5581777 4.53938952,18.2925376 4.31562642,18.0013667 C4.09186333,17.7099226 3.86558542,17.5123462 3.63668337,17.4083098 L3.52739863,17.3300774 C3.45457859,17.2780866 3.38700683,17.2153804 3.32451936,17.142615 C3.26208656,17.0698497 3.21534396,16.9970296 3.18412756,16.9241002 C3.15285649,16.8511162 3.17876993,16.7912528 3.26214123,16.7442916 C3.34551253,16.6973303 3.49618223,16.674533 3.71480638,16.674533 L4.02686105,16.7211663 C4.23498861,16.7628793 4.49242825,16.8874715 4.79950797,17.0957084 C5.10642369,17.3037813 5.35872437,17.574287 5.55646469,17.9071162 C5.795918,18.3338679 6.08441002,18.6590433 6.42276082,18.8828064 C6.76083827,19.1065695 7.10170387,19.2182597 7.44502961,19.2182597 C7.78835535,19.2182597 8.08488383,19.1922369 8.33472437,19.1404647 C8.58429157,19.0884191 8.81844191,19.0101868 9.03706606,18.906205 C9.13071526,18.2087289 9.38569476,17.6729112 9.80178588,17.298369 C9.20872893,17.2360456 8.67553531,17.1421777 8.20193166,17.0173667 C7.72860137,16.8923918 7.23947153,16.6895672 6.73487016,16.4083462 C6.22999544,16.127508 5.81117084,15.7787699 5.47828702,15.3627335 C5.14534852,14.9464784 4.87210934,14.4 4.65895216,13.7237904 C4.44568565,13.0473075 4.33902506,12.2669522 4.33902506,11.3825057 C4.33902506,10.1231891 4.75014123,9.05155353 5.57220957,8.16699772 C5.18711617,7.22022779 5.22347153,6.15887016 5.68138497,4.98303417 C5.98316173,4.88927563 6.43068793,4.95963554 7.02374487,5.19367654 C7.61691116,5.42782688 8.05120729,5.62841002 8.32707062,5.79471526 C8.60293394,5.96096583 8.82396355,6.10184966 8.99048747,6.21610934 C9.95841458,5.94565831 10.9572847,5.81040547 11.9873713,5.81040547 C13.0174579,5.81040547 14.0165467,5.94565831 14.9845285,6.21610934 L15.5776401,5.84167654 C15.9832346,5.59183599 16.4621959,5.36287927 17.0133759,5.15475171 C17.5648838,4.94673349 17.9866059,4.88943964 18.2781048,4.98319818 C18.7461868,6.15908884 18.7878998,7.2203918 18.402697,8.16716173 C19.2247107,9.05171754 19.6359909,10.1236264 19.6359909,11.3826697 C19.6359909,12.2671162 19.5289476,13.0499317 19.3160091,13.7316082 C19.1027973,14.4133941 18.8272073,14.9593257 18.4891298,15.3705513 C18.1506697,15.7817221 17.7291663,16.1277267 17.2245649,16.4085103 C16.7198542,16.6895125 16.2305604,16.8923371 15.7572301,17.0173121 C15.2836811,17.142287 14.7504875,17.2362096 14.1574305,17.2986424 C14.6983326,17.7667244 14.9688383,18.5055854 14.9688383,19.5148975 L14.9688383,22.8080364 C14.9688383,22.9951162 15.0338952,23.1513075 15.1641185,23.2761185 C15.2941777,23.4007107 15.4995718,23.4373941 15.780574,23.3851845 C18.1949522,22.5841093 20.1642642,21.1403371 21.6886196,19.0539226 C23.2128109,16.967672 23.97518,14.6187882 23.97518,12.0066697 C23.9746333,9.83240091 23.4384328,7.82695216 22.3671253,5.99032346 Z"/>
</svg>
