<svg xmlns="http://www.w3.org/2000/svg" width="28" height="28" viewBox="0 0 28 28">
  <g fill="none" fill-rule="evenodd" transform="translate(-21 -21)">
    <rect width="72" height="72"/>
    <path fill="#6B60E9" d="M39,38 L48,38 C48.5522847,38 49,38.4477153 49,39 L49,48 C49,48.5522847 48.5522847,49 48,49 L39,49 C38.4477153,49 38,48.5522847 38,48 L38,39 C38,38.4477153 38.4477153,38 39,38 Z M24,38 L33,38 C33.5522847,38 34,38.4477153 34,39 L34,48 C34,48.5522847 33.5522847,49 33,49 L24,49 C23.4477153,49 23,48.5522847 23,48 L23,39 C23,38.4477153 23.4477153,38 24,38 Z M39,23 L48,23 C48.5522847,23 49,23.4477153 49,24 L49,33 C49,33.5522847 48.5522847,34 48,34 L39,34 C38.4477153,34 38,33.5522847 38,33 L38,24 C38,23.4477153 38.4477153,23 39,23 Z M29.2071068,21.4289322 L35.5710678,27.7928932 C35.9615921,28.1834175 35.9615921,28.8165825 35.5710678,29.2071068 L29.2071068,35.5710678 C28.8165825,35.9615921 28.1834175,35.9615921 27.7928932,35.5710678 L21.4289322,29.2071068 C21.0384079,28.8165825 21.0384079,28.1834175 21.4289322,27.7928932 L27.7928932,21.4289322 C28.1834175,21.0384079 28.8165825,21.0384079 29.2071068,21.4289322 Z"/>
  </g>
</svg>
