<svg xmlns="http://www.w3.org/2000/svg" width="32" height="18" viewBox="0 0 32 18">
  <g fill="none" fill-rule="evenodd" transform="translate(-20 -27)">
    <rect width="72" height="72"/>
    <path fill="#6B60E9" d="M22,27 L50,27 C51.1045695,27 52,27.8954305 52,29 L52,43 C52,44.1045695 51.1045695,45 50,45 L41.3187923,45 C40.5187361,45 39.7956598,44.5232063 39.4805023,43.7878386 L37.3939193,38.919145 C37.1549449,38.3615381 36.6066582,38 36,38 C35.3933418,38 34.8450551,38.3615381 34.6060807,38.919145 L32.5194977,43.7878386 C32.2043402,44.5232063 31.4812639,45 30.6812077,45 L22,45 C20.8954305,45 20,44.1045695 20,43 L20,29 C20,27.8954305 20.8954305,27 22,27 Z M28,38 C29.6568542,38 31,36.6568542 31,35 C31,33.3431458 29.6568542,32 28,32 C26.3431458,32 25,33.3431458 25,35 C25,36.6568542 26.3431458,38 28,38 Z M44,38 C45.6568542,38 47,36.6568542 47,35 C47,33.3431458 45.6568542,32 44,32 C42.3431458,32 41,33.3431458 41,35 C41,36.6568542 42.3431458,38 44,38 Z"/>
  </g>
</svg>
