<svg xmlns="http://www.w3.org/2000/svg" xmlns:xlink="http://www.w3.org/1999/xlink" width="977" height="220" viewBox="0 0 977 220">
  <defs>
    <linearGradient id="il_phone_tilted-b" x1="80.443%" x2="5.637%" y1="0%" y2="88.242%">
      <stop offset="0%" stop-color="#5960E9"/>
      <stop offset="100%" stop-color="#EF8A7C"/>
    </linearGradient>
    <linearGradient id="il_phone_tilted-d" x1="100%" x2="0%" y1="50%" y2="50%">
      <stop offset="0%" stop-color="#484762"/>
      <stop offset="27.585%" stop-color="#484762"/>
      <stop offset="27.756%" stop-color="#FFF" stop-opacity="0"/>
      <stop offset="100%" stop-color="#FFF" stop-opacity="0"/>
    </linearGradient>
    <path id="il_phone_tilted-c" d="M114.783287,44.9612403 L754.464395,44.9612403 C762.199204,44.9612403 769.240606,49.421264 772.546096,56.4141898 L805.707724,126.569229 C810.42813,136.555477 806.159321,148.477575 796.173073,153.197981 C793.50081,154.461134 790.581788,155.116279 787.626023,155.116279 L81.6216592,155.116279 C70.5759642,155.116279 61.6216592,146.161974 61.6216592,135.116279 C61.6216592,132.160514 62.2768039,129.241492 63.5399577,126.569229 L96.7015857,56.4141898 C100.007076,49.421264 107.048478,44.9612403 114.783287,44.9612403 Z"/>
    <filter id="il_phone_tilted-a" width="139.9%" height="372.3%" x="-20%" y="-136.2%" filterUnits="objectBoundingBox">
      <feGaussianBlur in="SourceGraphic" stdDeviation="50"/>
    </filter>
    <linearGradient id="il_phone_tilted-e" x1="78.333%" x2="6.667%" y1="0%" y2="86.668%">
      <stop offset="0%" stop-color="#5960E9"/>
      <stop offset="100%" stop-color="#EF8A7C"/>
    </linearGradient>
    <linearGradient id="il_phone_tilted-f" x1="50%" x2="50%" y1="0%" y2="100%">
      <stop offset="0%" stop-color="#524E86"/>
      <stop offset="100%" stop-color="#42424B"/>
    </linearGradient>
    <linearGradient id="il_phone_tilted-g" x1="78.333%" x2="6.667%" y1="0%" y2="86.668%">
      <stop offset="0%" stop-color="#525298"/>
      <stop offset="100%" stop-color="#615479"/>
    </linearGradient>
    <linearGradient id="il_phone_tilted-h" x1="67.627%" x2="25.293%" y1="0%" y2="89.52%">
      <stop offset="0%" stop-color="#53529A"/>
      <stop offset="100%" stop-color="#504B63"/>
    </linearGradient>
    <radialGradient id="il_phone_tilted-i" fx="50%" fy="50%" gradientTransform="matrix(0 1 -.99374 0 .997 0)">
      <stop offset="0%" stop-color="#FFF" stop-opacity="0"/>
      <stop offset="100%" stop-color="#FFF" stop-opacity=".401"/>
    </radialGradient>
    <radialGradient id="il_phone_tilted-j" r="49.2%" fx="50%" fy="50%" gradientTransform="matrix(0 1 -.39286 0 .696 0)">
      <stop offset="0%" stop-color="#FFF" stop-opacity="0"/>
      <stop offset="100%" stop-color="#FFF" stop-opacity=".201"/>
    </radialGradient>
  </defs>
  <g fill="none" fill-rule="evenodd" transform="translate(54 83)">
    <g filter="url(#il_phone_tilted-a)" opacity=".8">
      <use fill="url(#il_phone_tilted-b)" xlink:href="#il_phone_tilted-c"/>
      <use fill="url(#il_phone_tilted-d)" xlink:href="#il_phone_tilted-c"/>
    </g>
    <path fill="url(#il_phone_tilted-e)" d="M91.4161845,5.05825643e-14 L777.831498,6.39488462e-14 C789.689064,6.17706466e-14 800.574566,6.55683363 806.118513,17.0385576 L854.31133,108.154837 C862.574307,123.777324 856.608244,143.140318 840.985757,151.403294 C836.375682,153.841635 831.239514,155.116279 826.024315,155.116279 L29.9419542,155.116279 C16.6871202,155.116279 5.94195416,144.371113 5.94195416,131.116279 C5.94195416,127.20488 6.89793718,123.352754 8.7266926,119.895197 L63.1291691,17.0385576 C68.6731159,6.55683363 79.558618,6.61270458e-14 91.4161845,6.39488462e-14 Z"/>
    <path fill="url(#il_phone_tilted-f)" fill-opacity=".4" fill-rule="nonzero" d="M53.5788114,83.1782946 L53.5788114,83.1782946 C52.4032993,82.842434 51.7226272,81.6172243 52.0584878,80.4417122 C52.1005518,80.2944884 52.1577772,80.152026 52.2292451,80.0166133 L64.0877367,57.5478924 C64.7257995,56.3389312 66.1450027,55.7692645 67.4418605,56.2015504 L67.4418605,56.2015504 C68.5186687,56.5604865 69.1006191,57.7243872 68.741683,58.8011955 C68.71093,58.8934547 68.6736673,58.9834148 68.6301759,59.0703976 L57.4214103,81.4879287 C56.7141005,82.9025483 55.0995507,83.6127915 53.5788114,83.1782946 Z"/>
    <g transform="translate(585.245)">
      <path fill="url(#il_phone_tilted-g)" d="M-3.5436273,4.2602328e-15 L199.814166,2.13162821e-14 C207.225145,6.79036395e-15 214.028584,4.09802102 217.493551,10.6490985 L278.380341,125.765378 C283.544701,135.529432 279.815913,147.631303 270.051858,152.795664 C267.170561,154.319627 263.960456,155.116279 260.700957,155.116279 L34.3096009,155.116279 L-3.5436273,4.2602328e-15 Z"/>
      <path fill="#FFF" d="M18.3430436,4.97058938 C18.3430436,4.83502785 18.4500674,4.69946632 18.4500674,4.51871762 C18.4500674,4.33796891 18.4500674,4.20240739 18.3430436,4.06684586 L20.590542,3.29866386 C20.8045894,3.20828951 20.8045894,3.11791516 20.6975657,3.0275408 L18.5570911,1.44598964 C18.4500674,1.40080246 18.2360199,1.35561529 17.9149487,1.40080246 L15.2393555,1.85267422 C14.7042369,1.67192552 14.0620945,1.53636399 13.4199521,1.40080246 L12.9918572,0.225935881 C13.0988809,0.0903743524 12.7778097,0 12.5637623,0 L8.28281309,0 C8.06876563,0 7.74769444,0.0903743524 7.74769444,0.180748705 L7.31959952,1.40080246 C6.67745715,1.49117681 6.1423385,1.67192552 5.50019613,1.85267422 L2.93162662,1.40080246 C2.61055543,1.35561529 2.39650797,1.40080246 2.18246051,1.49117681 L0.0419859276,3.07272798 C-0.0650378018,3.11791516 0.0419859276,3.25347669 0.256033386,3.34385104 L2.5035317,4.06684586 C2.5035317,4.20240739 2.39650797,4.33796891 2.39650797,4.51871762 C2.39650797,4.69946632 2.39650797,4.83502785 2.5035317,4.97058938 L0.256033386,5.73877138 C0.0419859276,5.82914573 0.0419859276,5.91952008 0.149009657,6.00989443 L2.28948424,7.5914456 C2.39650797,7.63663278 2.61055543,7.68181995 2.93162662,7.63663278 L5.60721985,7.18476101 C6.1423385,7.36550972 6.78448088,7.50107125 7.42662325,7.63663278 L7.85471817,8.81149936 C7.85471817,8.90187371 8.06876563,8.99224806 8.38983682,8.99224806 L12.670786,8.99224806 C12.8848335,8.99224806 13.2059046,8.90187371 13.2059046,8.81149936 L13.6339996,7.63663278 C14.2761419,7.50107125 14.9182843,7.36550972 15.453403,7.18476101 L18.1289962,7.63663278 C18.3430436,7.68181995 18.6641148,7.63663278 18.7711386,7.54625842 L20.9116132,5.96470726 C21.0186369,5.8743329 21.0186369,5.73877138 20.8045894,5.6935842 L18.3430436,4.97058938 L18.3430436,4.97058938 Z M10.4232877,6.10026879 C8.38983682,6.10026879 6.67745715,5.37727397 6.67745715,4.51871762 C6.67745715,3.66016127 8.38983682,2.93716645 10.4232877,2.93716645 C12.4567385,2.93716645 14.1691182,3.66016127 14.1691182,4.51871762 C14.1691182,5.37727397 12.4567385,6.10026879 10.4232877,6.10026879 L10.4232877,6.10026879 Z" transform="translate(52.455 131.137)"/>
      <path fill="#FFF" d="M7.76330749,3.82170543 L12.7989664,0.0899224806 C12.0645995,0.0449612403 11.225323,0 10.4909561,0 C7.97312661,0 5.66511628,0.359689922 3.88165375,1.03410853 L7.76330749,3.86666667 L7.76330749,3.82170543 L7.76330749,3.82170543 Z M20.4573643,3.14728682 C19.5131783,1.84341085 17.205168,0.764341085 14.1627907,0.314728682 L10.3860465,3.14728682 L20.4573643,3.14728682 L20.4573643,3.14728682 Z M20.772093,3.59689922 L12.903876,3.59689922 L13.2186047,3.82170543 L18.2542636,7.55348837 C19.9328165,6.74418605 20.9819121,5.66511628 20.9819121,4.49612403 C20.9819121,4.18139535 20.8770026,3.86666667 20.772093,3.59689922 L20.772093,3.59689922 Z M6.81912145,4.49612403 L2.72764858,1.43875969 C1.04909561,2.24806202 0,3.32713178 0,4.49612403 C0,4.81085271 0.104909561,5.1255814 0.209819121,5.39534884 L8.07803618,5.39534884 L6.81912145,4.49612403 L6.81912145,4.49612403 Z M0.524547804,5.84496124 C1.46873385,7.14883721 3.77674419,8.22790698 6.81912145,8.67751938 L10.7007752,5.84496124 L0.524547804,5.84496124 L0.524547804,5.84496124 Z M12.2744186,5.84496124 L8.18294574,8.90232558 C8.91731266,8.99224806 9.65167959,8.99224806 10.4909561,8.99224806 C13.0087855,8.99224806 15.3167959,8.63255814 17.1002584,7.95813953 L13.2186047,5.1255814 L12.2744186,5.84496124 L12.2744186,5.84496124 Z" transform="translate(44.961 103.41)"/>
      <g transform="translate(38.217 77.933)">
        <path fill="#FFF" fill-rule="nonzero" d="M1.58865376,5.66622643 L3.55080677,5.66622643 C4.82156027,6.71267577 7.32850639,7.4247105 10.2134176,7.4247105 C13.0983287,7.4247105 15.6052748,6.71267577 16.8760283,5.66622643 L18.8381813,5.66622643 C17.4411275,7.15698603 14.1057621,8.20625897 10.2134176,8.20625897 C6.32107299,8.20625897 2.98570758,7.15698603 1.58865376,5.66622643 Z M1.58865376,2.54003254 C2.98570758,1.04927294 6.32107299,0 10.2134176,0 C14.1057621,0 17.4411275,1.04927294 18.8381813,2.54003254 L16.8760283,2.54003254 C15.6052748,1.4935832 13.0983287,0.781548474 10.2134176,0.781548474 C7.32850639,0.781548474 4.82156027,1.4935832 3.55080677,2.54003254 L1.58865376,2.54003254 Z"/>
        <polygon fill="#FFF" points="2.22 6.057 6.661 3.517 10.213 5.275 12.878 4.103 16.874 6.057"/>
        <path stroke="#FFF" stroke-width="2" d="M1,3.40410868 L1,4.80215029 C4.07154574,5.2325922 7.14257581,5.44777491 10.2134176,5.44777491 C13.2842593,5.44777491 16.3552894,5.2325922 19.4268351,4.80215029 L19.4268351,3.40410868 C16.3552894,2.97366678 13.2842593,2.75848407 10.2134176,2.75848407 C7.14257581,2.75848407 4.07154574,2.97366678 1,3.40410868 Z"/>
      </g>
      <path fill="#FFF" d="M19.5387118,0.747893276 C19.5387118,0.336551974 18.7394009,0 17.7624653,0 L1.77624653,0 C0.799310939,0 0,0.336551974 0,0.747893276 L1.49870801,5.23525293 C1.49870801,5.64659423 2.29801895,5.98314621 3.27495454,5.98314621 L19.2611733,5.98314621 C20.2381089,5.98314621 21.0374198,5.64659423 21.0374198,5.23525293 L19.5387118,0.747893276 Z M10.3799407,4.30038634 L13.4883721,2.61762647 L17.4849268,4.86130629 L5.05120107,4.86130629 L8.1596325,3.17854642 L10.3799407,4.30038634 Z" transform="translate(31.473 54.703)"/>
      <path fill="#FFF" d="M4.954339,0.383792047 L3.77105765,1.5670734 L3.82837538,1.62439113 C2.56110673,2.15974533 1.77624653,2.89379335 1.77624653,3.70051361 C1.77624653,4.50723386 2.56110673,5.24128188 3.82837538,5.77663609 L3.77105765,5.83395381 L4.954339,7.01723516 C2.0252093,6.41064983 1.17961196e-16,5.14934141 1.17961196e-16,3.70051361 C1.17961196e-16,2.25168581 2.0252093,0.990377384 4.954339,0.383792047 Z M5.07521157,0.359235381 C5.97582838,0.179775258 6.95905657,0.0617810743 7.99310939,0.0184973134 L7.99310939,0.763283605 C7.201362,0.804890872 6.44910127,0.901339337 5.75911167,1.04313548 L5.07521157,0.359235381 Z M5.07521157,7.04179183 L5.75911167,6.35789173 C6.44910127,6.49968787 7.201362,6.59613634 7.99310939,6.63774361 L7.99310939,7.3825299 C6.95905657,7.33924614 5.97582838,7.22125195 5.07521157,7.04179183 Z M9.76935592,0.0184973134 C14.2411638,0.205679882 17.7624653,1.79007353 17.7624653,3.70051361 C17.7624653,5.61095369 14.2411638,7.19534733 9.76935592,7.3825299 L9.76935592,6.63774361 C13.2619821,6.45420194 15.9862188,5.20347984 15.9862188,3.70051361 C15.9862188,2.19754737 13.2619821,0.946825268 9.76935592,0.763283605 L9.76935592,0.0184973134 Z M7.10498612,5.36574473 L7.10498612,2.03528248 L12.4337257,3.70051361 L7.10498612,5.36574473 Z" transform="translate(26.977 31.473)"/>
      <polygon fill="#FFF" points="14.21 2.618 3.375 2.618 8.348 .524 7.105 0 0 2.992 7.105 5.983 8.348 5.46 3.375 3.366 14.21 3.366" transform="translate(22.48 11.24)"/>
    </g>
    <g transform="translate(641.447)">
      <path fill="url(#il_phone_tilted-h)" d="M0.203142725,0 L143.612616,2.84217094e-14 C151.023595,4.0224878e-14 157.827034,4.09802102 161.292,10.6490985 L219.073961,119.895197 C225.271194,131.612063 220.796647,146.134308 209.079781,152.331541 C205.622225,154.160296 201.770099,155.116279 197.8587,155.116279 L53.0434511,155.116279 L0.203142725,0 Z"/>
      <path fill="#FFF" fill-rule="nonzero" d="M34.7493053,15.7949334 C31.1802277,18.0421616 25.6682894,19.4832041 19.4832041,19.4832041 C8.89900729,19.4832041 0.28602712,15.2633132 0.00697807624,10.0048886 L2.11411839,10.0048886 C2.39249815,14.6815901 10.0623496,18.430058 19.4832041,18.430058 C25.0870214,18.430058 30.0712916,17.10376 33.2488906,15.0447261 L30.5412389,13.6909002 L37.9132621,13.6909002 L37.9132621,17.3769118 L34.7493053,15.7949334 Z M4.45272253,3.54279398 C8.02626128,1.37904067 13.4326405,0 19.4832041,0 C30.067401,0 38.6803811,4.21989092 38.9594302,9.47831552 L36.8522899,9.47831552 C36.5739101,4.80161404 28.9040587,1.05314617 19.4832041,1.05314617 C14.0140646,1.05314617 9.13505052,2.31645985 5.94973543,4.29130043 L8.95174244,5.79230393 L1.57971925,5.79230393 L1.57971925,2.10629234 L4.45272253,3.54279398 Z M16.9556533,6.05559047 L22.0107549,6.05559047 L23.5272854,6.87470416 L26.2233396,6.87470416 C27.1501082,6.87470416 27.9083735,7.24330532 27.9083735,7.69381785 L27.9083735,12.6085 C27.9083735,13.0590125 27.1501082,13.4276137 26.2233396,13.4276137 L12.7430687,13.4276137 C11.8163,13.4276137 11.0580348,13.0590125 11.0580348,12.6085 L11.0580348,7.69381785 C11.0580348,7.24330532 11.8163,6.87470416 12.7430687,6.87470416 L15.4391228,6.87470416 L16.9556533,6.05559047 Z M19.6517075,11.5436522 C21.1406971,11.5436522 22.3477617,10.9568847 22.3477617,10.2330703 C22.3477617,9.50925588 21.1406971,8.92248838 19.6517075,8.92248838 C18.1627179,8.92248838 16.9556533,9.50925588 16.9556533,10.2330703 C16.9556533,10.9568847 18.1627179,11.5436522 19.6517075,11.5436522 Z" transform="translate(109.406 115.4)"/>
      <g transform="translate(71.189 56.202)">
        <ellipse cx="33.721" cy="13.488" fill="url(#il_phone_tilted-i)" rx="33.721" ry="13.488"/>
        <ellipse cx="33.721" cy="13.488" fill="#FFF" rx="23.979" ry="8.992"/>
      </g>
      <g transform="translate(65.194 14.987)">
        <ellipse cx="20.982" cy="8.243" stroke="url(#il_phone_tilted-j)" stroke-width="28" rx="6.982" ry="1"/>
        <path fill="#FFF" d="M17.9844961,0.749354005 C17.9844961,0.337209302 17.0852713,0 15.9862188,0 L1.99827735,0 C0.899224806,0 0,0.337209302 0,0.749354005 L1.49870801,5.99483204 C1.49870801,6.40697674 2.39793282,6.74418605 3.49698536,6.74418605 L17.4849268,6.74418605 C18.5839793,6.74418605 19.4832041,6.40697674 19.4832041,5.99483204 L17.9844961,0.749354005 Z M6.24461671,3.93410853 L8.74246339,5.05813953 L12.2394488,3.37209302 L16.7355728,5.62015504 L2.74763135,5.62015504 L6.24461671,3.93410853 L6.24461671,3.93410853 Z" transform="translate(11.24 4.496)"/>
      </g>
    </g>
  </g>
</svg>
