<svg xmlns="http://www.w3.org/2000/svg" xmlns:xlink="http://www.w3.org/1999/xlink" width="720" height="360" viewBox="0 0 720 360">
  <defs>
    <linearGradient id="il_phone-b" x1="78.333%" x2="6.667%" y1="0%" y2="86.668%">
      <stop offset="0%" stop-color="#5960E9"/>
      <stop offset="100%" stop-color="#EF8A7C"/>
    </linearGradient>
    <path id="il_phone-a" d="M24,0 L696,3.55271368e-15 C709.254834,1.11784017e-15 720,10.745166 720,24 L720,336 C720,349.254834 709.254834,360 696,360 L24,360 C10.745166,360 -1.92946468e-15,349.254834 -3.55271368e-15,336 L3.55271368e-15,24 C1.92946468e-15,10.745166 10.745166,-1.11784017e-15 24,-3.55271368e-15 Z"/>
    <linearGradient id="il_phone-c" x1="50%" x2="50%" y1="0%" y2="100%">
      <stop offset="0%" stop-color="#524E86"/>
      <stop offset="100%" stop-color="#42424B"/>
    </linearGradient>
    <radialGradient id="il_phone-e" r="49.2%" fx="50%" fy="50%">
      <stop offset="0%" stop-color="#FFF" stop-opacity="0"/>
      <stop offset="72.162%" stop-color="#FFF" stop-opacity=".1"/>
      <stop offset="100%" stop-color="#FFF" stop-opacity=".201"/>
    </radialGradient>
    <radialGradient id="il_phone-f" r="49.2%" fx="50%" fy="50%">
      <stop offset="0%" stop-color="#FFF" stop-opacity="0"/>
      <stop offset="100%" stop-color="#FFF" stop-opacity=".201"/>
    </radialGradient>
  </defs>
  <g fill="none" fill-rule="evenodd">
    <mask id="il_phone-d" fill="#fff">
      <use xlink:href="#il_phone-a"/>
    </mask>
    <use fill="url(#il_phone-b)" xlink:href="#il_phone-a"/>
    <path fill="url(#il_phone-c)" fill-opacity=".4" d="M21,150 L21,150 C22.6568542,150 24,151.343146 24,153 L24,207 C24,208.656854 22.6568542,210 21,210 L21,210 C19.3431458,210 18,208.656854 18,207 L18,153 C18,151.343146 19.3431458,150 21,150 Z" mask="url(#il_phone-d)"/>
    <g mask="url(#il_phone-d)">
      <g transform="translate(510)">
        <rect width="54" height="360" fill="url(#il_phone-c)" fill-opacity=".6"/>
        <path fill="#FFF" d="M15.2348715,9.77777778 C15.2348715,9.51111111 15.3237604,9.24444444 15.3237604,8.88888889 C15.3237604,8.53333333 15.3237604,8.26666667 15.2348715,8 L17.1015382,6.48888889 C17.279316,6.31111111 17.279316,6.13333333 17.1904271,5.95555556 L15.4126493,2.84444444 C15.3237604,2.75555556 15.1459827,2.66666667 14.879316,2.75555556 L12.6570938,3.64444444 C12.2126493,3.28888889 11.679316,3.02222222 11.1459827,2.75555556 L10.7904271,0.444444444 C10.879316,0.177777778 10.6126493,0 10.4348715,0 L6.87931599,0 C6.70153821,0 6.43487154,0.177777778 6.43487154,0.355555556 L6.07931599,2.75555556 C5.54598265,2.93333333 5.10153821,3.28888889 4.56820488,3.64444444 L2.43487154,2.75555556 C2.16820488,2.66666667 1.9904271,2.75555556 1.81264932,2.93333333 L0.0348715418,6.04444444 C-0.0540173471,6.13333333 0.0348715418,6.4 0.21264932,6.57777778 L2.07931599,8 C2.07931599,8.26666667 1.9904271,8.53333333 1.9904271,8.88888889 C1.9904271,9.24444444 1.9904271,9.51111111 2.07931599,9.77777778 L0.21264932,11.2888889 C0.0348715418,11.4666667 0.0348715418,11.6444444 0.123760431,11.8222222 L1.90153821,14.9333333 C1.9904271,15.0222222 2.16820488,15.1111111 2.43487154,15.0222222 L4.65709376,14.1333333 C5.10153821,14.4888889 5.63487154,14.7555556 6.16820488,15.0222222 L6.52376043,17.3333333 C6.52376043,17.5111111 6.70153821,17.6888889 6.96820488,17.6888889 L10.5237604,17.6888889 C10.7015382,17.6888889 10.9682049,17.5111111 10.9682049,17.3333333 L11.3237604,15.0222222 C11.8570938,14.7555556 12.3904271,14.4888889 12.8348715,14.1333333 L15.0570938,15.0222222 C15.2348715,15.1111111 15.5015382,15.0222222 15.5904271,14.8444444 L17.3682049,11.7333333 C17.4570938,11.5555556 17.4570938,11.2888889 17.279316,11.2 L15.2348715,9.77777778 L15.2348715,9.77777778 Z M8.65709376,12 C6.96820488,12 5.54598265,10.5777778 5.54598265,8.88888889 C5.54598265,7.2 6.96820488,5.77777778 8.65709376,5.77777778 C10.3459827,5.77777778 11.7682049,7.2 11.7682049,8.88888889 C11.7682049,10.5777778 10.3459827,12 8.65709376,12 L8.65709376,12 Z" transform="translate(17.778 313.333)"/>
        <path fill="#FFF" d="M6.57777778,7.55555556 L10.8444444,0.177777778 C10.2222222,0.0888888889 9.51111111,0 8.88888889,0 C6.75555556,0 4.8,0.711111111 3.28888889,2.04444444 L6.57777778,7.64444444 L6.57777778,7.55555556 L6.57777778,7.55555556 Z M17.3333333,6.22222222 C16.5333333,3.64444444 14.5777778,1.51111111 12,0.622222222 L8.8,6.22222222 L17.3333333,6.22222222 L17.3333333,6.22222222 Z M17.6,7.11111111 L10.9333333,7.11111111 L11.2,7.55555556 L15.4666667,14.9333333 C16.8888889,13.3333333 17.7777778,11.2 17.7777778,8.88888889 C17.7777778,8.26666667 17.6888889,7.64444444 17.6,7.11111111 L17.6,7.11111111 Z M5.77777778,8.88888889 L2.31111111,2.84444444 C0.888888889,4.44444444 0,6.57777778 0,8.88888889 C0,9.51111111 0.0888888889,10.1333333 0.177777778,10.6666667 L6.84444444,10.6666667 L5.77777778,8.88888889 L5.77777778,8.88888889 Z M0.444444444,11.5555556 C1.24444444,14.1333333 3.2,16.2666667 5.77777778,17.1555556 L9.06666667,11.5555556 L0.444444444,11.5555556 L0.444444444,11.5555556 Z M10.4,11.5555556 L6.93333333,17.6 C7.55555556,17.7777778 8.17777778,17.7777778 8.88888889,17.7777778 C11.0222222,17.7777778 12.9777778,17.0666667 14.4888889,15.7333333 L11.2,10.1333333 L10.4,11.5555556 L10.4,11.5555556 Z" transform="translate(17.778 256.444)"/>
        <g transform="translate(16.444 199.111)">
          <path fill="#FFF" fill-rule="nonzero" d="M1.59002329,12.8888889 L3.55386781,12.8888889 C4.82571679,15.2692331 7.33482406,16.8888889 10.2222222,16.8888889 C13.1096204,16.8888889 15.6187277,15.2692331 16.8905766,12.8888889 L18.8544212,12.8888889 C17.456163,16.2798997 14.1179223,18.6666667 10.2222222,18.6666667 C6.32652219,18.6666667 2.98828146,16.2798997 1.59002329,12.8888889 Z M1.59002329,5.77777778 C2.98828146,2.38676701 6.32652219,0 10.2222222,0 C14.1179223,0 17.456163,2.38676701 18.8544212,5.77777778 L16.8905766,5.77777778 C15.6187277,3.39743358 13.1096204,1.77777778 10.2222222,1.77777778 C7.33482406,1.77777778 4.82571679,3.39743358 3.55386781,5.77777778 L1.59002329,5.77777778 Z"/>
          <polygon fill="#FFF" points="2.222 13.778 6.667 8 10.222 12 12.889 9.333 16.889 13.778"/>
          <path stroke="#FFF" stroke-width="2" d="M1,6.49661511 L1,12.1700516 C4.07857949,13.168427 7.15155176,13.6666667 10.2222222,13.6666667 C13.2928927,13.6666667 16.365865,13.168427 19.4444444,12.1700516 L19.4444444,6.49661511 C16.365865,5.49823968 13.2928927,5 10.2222222,5 C7.15155176,5 4.07857949,5.49823968 1,6.49661512 Z"/>
        </g>
        <path fill="#FFF" d="M19.5555556,12.4444444 L19.5555556,1.77777778 C19.5555556,0.8 18.7555556,0 17.7777778,0 L1.77777778,0 C0.8,0 0,0.8 0,1.77777778 L0,12.4444444 C0,13.4222222 0.8,14.2222222 1.77777778,14.2222222 L17.7777778,14.2222222 C18.7555556,14.2222222 19.5555556,13.4222222 19.5555556,12.4444444 L19.5555556,12.4444444 Z M6.66666667,7.55555556 L8.88888889,10.2222222 L12,6.22222222 L16,11.5555556 L3.55555556,11.5555556 L6.66666667,7.55555556 L6.66666667,7.55555556 Z" transform="translate(16.889 144.444)"/>
        <path fill="#FFF" d="M2.11473281,3.14958931 L3.37557832,4.41043482 C2.5550154,5.41762274 2.00352443,6.65159595 1.83345986,8 L0.0444318224,8 C0.22889004,6.16386546 0.978209474,4.48784279 2.11473281,3.14958931 Z M3.39385842,1.91455748 C4.68935759,0.890402876 6.27393314,0.217832632 8,0.0444318224 L8,1.83345986 C6.76112615,1.98971017 5.61884787,2.46793745 4.6603039,3.18100296 L3.39385842,1.91455748 Z M2.11473281,14.6281885 C0.978209474,13.289935 0.22889004,11.6139123 0.0444318224,9.77777778 L1.83345986,9.77777778 C2.00352443,11.1261818 2.5550154,12.360155 3.37557832,13.367343 L2.11473281,14.6281885 Z M3.39385842,15.8632203 L4.6603039,14.5967748 C5.61884787,15.3098403 6.76112615,15.7880676 8,15.9443179 L8,17.733346 C6.27393314,17.5599451 4.68935759,16.8873749 3.39385842,15.8632203 Z M9.77777778,0.0444318224 C14.2534407,0.494057262 17.7777778,4.29988006 17.7777778,8.88888889 C17.7777778,13.4778977 14.2534407,17.2837205 9.77777778,17.733346 L9.77777778,15.9443179 C13.2734149,15.5034382 16,12.4991174 16,8.88888889 C16,5.27866034 13.2734149,2.27433959 9.77777778,1.83345986 L9.77777778,0.0444318224 Z M7.11111111,12.8888889 L7.11111111,4.88888889 L12.4444444,8.88888889 L7.11111111,12.8888889 Z" transform="translate(17.778 85.778)"/>
        <polygon fill="#FFF" points="14.222 6.222 3.378 6.222 8.356 1.244 7.111 0 0 7.111 7.111 14.222 8.356 12.978 3.378 8 14.222 8" transform="translate(19.556 30.667)"/>
      </g>
    </g>
    <g mask="url(#il_phone-d)">
      <g transform="translate(564)">
        <rect width="156" height="360" fill="url(#il_phone-c)" fill-opacity=".8"/>
        <g transform="translate(61.5 285)">
          <path fill="#FFF" fill-rule="nonzero" d="M29.428606,26.7529303 C26.4060138,30.5592103 21.7380454,33 16.5,33 C7.53642057,33 0.242231588,25.8524898 0.00590961615,16.9459459 L1.79041153,16.9459459 C2.02616671,24.8671866 8.5216357,31.2162162 16.5,31.2162162 C21.2457792,31.2162162 25.4668743,28.969777 28.1579298,25.4822542 L25.8648649,23.1891892 L32.1081081,23.1891892 L32.1081081,29.4324324 L29.428606,26.7529303 Z M3.7709363,6.00066603 C6.79730655,2.33577299 11.3758788,0 16.5,0 C25.4635794,0 32.7577684,7.1475102 32.9940904,16.0540541 L31.2095885,16.0540541 C30.9738333,8.13281337 24.4783643,1.78378378 16.5,1.78378378 C11.8682771,1.78378378 7.73632163,3.92354227 5.03873151,7.26846124 L7.58108108,9.81081081 L1.33783784,9.81081081 L1.33783784,3.56756757 L3.7709363,6.00066603 Z"/>
          <path fill="#FFF" d="M14.3594595,10.2567568 L18.6405405,10.2567568 L19.9248649,11.6441441 L22.2081081,11.6441441 C22.992973,11.6441441 23.6351351,12.2684685 23.6351351,13.0315315 L23.6351351,21.3558559 C23.6351351,22.1189189 22.992973,22.7432432 22.2081081,22.7432432 L10.7918919,22.7432432 C10.007027,22.7432432 9.36486486,22.1189189 9.36486486,21.3558559 L9.36486486,13.0315315 C9.36486486,12.2684685 10.007027,11.6441441 10.7918919,11.6441441 L13.0751351,11.6441441 L14.3594595,10.2567568 Z M16.6427027,19.5522523 C17.9037031,19.5522523 18.9259459,18.5584051 18.9259459,17.3324324 C18.9259459,16.1064598 17.9037031,15.1126126 16.6427027,15.1126126 C15.3817023,15.1126126 14.3594595,16.1064598 14.3594595,17.3324324 C14.3594595,18.5584051 15.3817023,19.5522523 16.6427027,19.5522523 Z"/>
        </g>
        <g transform="translate(48 150)">
          <circle cx="30" cy="30" r="24" stroke="url(#il_phone-e)" stroke-width="12"/>
          <circle cx="30" cy="30" r="21" fill="#FFF"/>
        </g>
        <g transform="translate(57 42)">
          <circle cx="21" cy="21" r="7" stroke="url(#il_phone-f)" stroke-width="28"/>
          <path fill="#FFF" d="M18,16 L18,2 C18,0.9 17.1,0 16,0 L2,0 C0.9,0 0,0.9 0,2 L0,16 C0,17.1 0.9,18 2,18 L16,18 C17.1,18 18,17.1 18,16 L18,16 Z M5.5,10.5 L8,13.5 L11.5,9 L16,15 L2,15 L5.5,10.5 L5.5,10.5 Z" transform="translate(12 12)"/>
        </g>
      </g>
    </g>
    <text fill="#FFF" font-family="Roboto-Thin, Roboto" font-size="48" font-style="condensed" font-weight="300" letter-spacing=".5" mask="url(#il_phone-d)">
      <tspan x="120" y="135">On Millions </tspan> <tspan x="120" y="195">of Devices </tspan> <tspan x="120" y="255">Globally</tspan>
    </text>
  </g>
</svg>
