<svg xmlns="http://www.w3.org/2000/svg" xmlns:xlink="http://www.w3.org/1999/xlink" width="132" height="42" viewBox="0 0 132 42">
  <defs>
    <path id="sp_buddy-a" d="M34,11 C34,9.9 33.4,8.9 32.5,8.4 L18.5,0.4 C17.6,-0.1 16.4,-0.1 15.5,0.4 L1.5,8.4 C0.6,8.9 0,9.9 0,11 L0,27 C0,28.1 0.6,29.1 1.5,29.6 L15.5,37.6 C16.4,38.1 17.6,38.1 18.5,37.6 L32.5,29.6 C33.4,29.1 34,28.1 34,27 L34,11 Z"/>
    <path id="sp_buddy-c" d="M34,11 C34,9.9 33.4,8.9 32.5,8.4 L18.5,0.4 C17.6,-0.1 16.4,-0.1 15.5,0.4 L1.5,8.4 C0.6,8.9 0,9.9 0,11 L0,27 C0,28.1 0.6,29.1 1.5,29.6 L15.5,37.6 C16.4,38.1 17.6,38.1 18.5,37.6 L32.5,29.6 C33.4,29.1 34,28.1 34,27 L34,11 Z"/>
    <path id="sp_buddy-e" d="M34,11 C34,9.9 33.4,8.9 32.5,8.4 L18.5,0.4 C17.6,-0.1 16.4,-0.1 15.5,0.4 L1.5,8.4 C0.6,8.9 0,9.9 0,11 L0,27 C0,28.1 0.6,29.1 1.5,29.6 L15.5,37.6 C16.4,38.1 17.6,38.1 18.5,37.6 L32.5,29.6 C33.4,29.1 34,28.1 34,27 L34,11 Z"/>
    <path id="sp_buddy-g" d="M34,11 C34,9.9 33.4,8.9 32.5,8.4 L18.5,0.4 C17.6,-0.1 16.4,-0.1 15.5,0.4 L1.5,8.4 C0.6,8.9 0,9.9 0,11 L0,27 C0,28.1 0.6,29.1 1.5,29.6 L15.5,37.6 C16.4,38.1 17.6,38.1 18.5,37.6 L32.5,29.6 C33.4,29.1 34,28.1 34,27 L34,11 Z"/>
    <path id="sp_buddy-i" d="M34,11 C34,9.9 33.4,8.9 32.5,8.4 L18.5,0.4 C17.6,-0.1 16.4,-0.1 15.5,0.4 L1.5,8.4 C0.6,8.9 0,9.9 0,11 L0,27 C0,28.1 0.6,29.1 1.5,29.6 L15.5,37.6 C16.4,38.1 17.6,38.1 18.5,37.6 L32.5,29.6 C33.4,29.1 34,28.1 34,27 L34,11 Z"/>
    <path id="sp_buddy-k" d="M34,11 C34,9.9 33.4,8.9 32.5,8.4 L18.5,0.4 C17.6,-0.1 16.4,-0.1 15.5,0.4 L1.5,8.4 C0.6,8.9 0,9.9 0,11 L0,27 C0,28.1 0.6,29.1 1.5,29.6 L15.5,37.6 C16.4,38.1 17.6,38.1 18.5,37.6 L32.5,29.6 C33.4,29.1 34,28.1 34,27 L34,11 Z"/>
    <path id="sp_buddy-m" d="M34,11 C34,9.9 33.4,8.9 32.5,8.4 L18.5,0.4 C17.6,-0.1 16.4,-0.1 15.5,0.4 L1.5,8.4 C0.6,8.9 0,9.9 0,11 L0,27 C0,28.1 0.6,29.1 1.5,29.6 L15.5,37.6 C16.4,38.1 17.6,38.1 18.5,37.6 L32.5,29.6 C33.4,29.1 34,28.1 34,27 L34,11 Z"/>
  </defs>
  <g fill="none" fill-rule="evenodd" opacity=".25" transform="translate(1)">
    <path fill="#3C425B" fill-rule="nonzero" d="M130.7,16.6 L125.5,31.7 C124,36.1 122.5,37.7 118.7,37.7 C117.3,37.7 116.1,37.5 115.4,37.3 L115.9,33.1 C116.4,33.2 117.2,33.2 118,33.2 C118.9,33.2 119.4,32.9 119.7,31.9 L119.8,31.5 L114.6,16.5 L120.6,16.5 L122.6,25.9 L122.7,25.9 L124.7,16.5 C124.8,16.6 130.7,16.6 130.7,16.6 Z M78,31.8 L73.3,31.8 L72.6,30.1 C71.7,31.4 70.2,32.2 68.2,32.2 C64.9,32.2 63.2,30.3 63.2,27.2 L63.2,16.6 L69.1,16.6 L69.1,26 C69.1,27.1 69.4,27.6 70.3,27.6 C71,27.6 71.7,27.2 72,26.8 L72,16.6 L78,16.6 L78,31.8 Z M113.6,31.8 L108.5,31.8 L108.1,30.1 C107.4,31.1 105.9,32.2 103.7,32.2 C99.7,32.2 97.6,29.4 97.6,24.3 C97.6,18.8 100.8,16.3 104.2,16.3 C105.5,16.3 106.8,16.8 107.8,17.6 L107.8,11.2 L113.7,11.2 C113.6,11.2 113.6,31.8 113.6,31.8 Z M107.7,21.7 C107.3,21.2 106.6,20.9 105.8,20.9 C104.5,20.9 103.8,22 103.8,24.2 C103.8,26.2 104.3,27.6 105.8,27.6 C106.6,27.6 107.3,27.3 107.7,26.9 L107.7,21.7 Z M95.9,31.8 L90.8,31.8 L90.4,30.1 C89.7,31.1 88.2,32.2 86,32.2 C82,32.2 79.9,29.4 79.9,24.3 C79.9,18.8 83.1,16.3 86.5,16.3 C87.8,16.3 89.1,16.8 90.1,17.6 L90.1,11.2 L96,11.2 C95.9,11.2 95.9,31.8 95.9,31.8 Z M90,21.7 C89.6,21.2 88.9,20.9 88.1,20.9 C86.8,20.9 86.1,22 86.1,24.2 C86.1,26.2 86.6,27.6 88.1,27.6 C88.9,27.6 89.6,27.3 90,26.9 L90,21.7 Z M53,31.7 L44.4,31.7 L44.4,11.2 L53.4,11.2 C57.5,11.2 60.8,12.8 60.8,16.6 C60.8,18.7 59.7,20.5 57.5,21 C60.3,21.5 61.6,23.7 61.6,25.8 C61.6,30.5 58.1,31.7 53,31.7 Z M50.6,23.3 L50.6,27 L53.3,27 C54.6,27 55.4,26.2 55.4,25.1 C55.4,24 54.5,23.3 53.2,23.3 L50.6,23.3 Z M52.9,15.9 L50.6,15.9 L50.6,19 L52.8,19 C54,19 54.9,18.6 54.9,17.4 C54.9,16.3 54.2,15.9 52.9,15.9 Z"/>
    <path stroke="#FFF" stroke-width="2" d="M36,13 L36,29 C36,30.4 35.2,31.8 34,32.5 L27,36.5 L20,40.5 C18.8,41.2 17.2,41.2 16,40.5 L9,36.5 L2,32.5 C0.8,31.8 0,30.5 0,29 L0,13 C0,11.6 0.8,10.2 2,9.5 L9,5.5 L16,1.5 C17.2,0.8 18.8,0.8 20,1.5 L27,5.5 L34,9.5 C35.2,10.2 36,11.6 36,13 Z"/>
    <g transform="translate(1 2)">
      <mask id="sp_buddy-b" fill="#fff">
        <use xlink:href="#sp_buddy-a"/>
      </mask>
      <path fill="#3C425B" fill-rule="nonzero" d="M15.5,0.4 C16.4,-0.1 17.6,-0.1 18.5,0.4 L32.5,8.4 C33.4,8.9 34,9.9 34,11 L34,27 C34,28.1 33.4,29.1 32.5,29.6 L18.5,37.6 C17.6,38.1 16.4,38.1 15.5,37.6 L1.5,29.6 C0.6,29.1 0,28.1 0,27 L0,11 C0,9.9 0.6,8.9 1.5,8.4 L15.5,0.4 Z" mask="url(#sp_buddy-b)"/>
    </g>
    <g transform="translate(1 2)">
      <mask id="sp_buddy-d" fill="#fff">
        <use xlink:href="#sp_buddy-c"/>
      </mask>
      <polygon fill="#3C425B" fill-rule="nonzero" points="0 29 8.8 19 17 39" mask="url(#sp_buddy-d)"/>
    </g>
    <g transform="translate(1 2)">
      <mask id="sp_buddy-f" fill="#fff">
        <use xlink:href="#sp_buddy-e"/>
      </mask>
      <polygon fill="#3C425B" fill-rule="nonzero" points="9 20 .1 10 0 30" mask="url(#sp_buddy-f)"/>
    </g>
    <g transform="translate(1 2)">
      <mask id="sp_buddy-h" fill="#fff">
        <use xlink:href="#sp_buddy-g"/>
      </mask>
      <polygon fill="#3C425B" fill-rule="nonzero" points="8.8 20 17 0 0 9.9" mask="url(#sp_buddy-h)"/>
    </g>
    <g transform="translate(1 2)">
      <mask id="sp_buddy-j" fill="#fff">
        <use xlink:href="#sp_buddy-i"/>
      </mask>
      <polyline fill="#3C425B" fill-rule="nonzero" points="17.1 0 34 30 9 20" mask="url(#sp_buddy-j)"/>
    </g>
    <g transform="translate(1 2)">
      <mask id="sp_buddy-l" fill="#fff">
        <use xlink:href="#sp_buddy-k"/>
      </mask>
      <polygon fill="#3C425B" fill-rule="nonzero" points="17.1 39 34 29 9 19" mask="url(#sp_buddy-l)"/>
    </g>
    <g transform="translate(1 2)">
      <mask id="sp_buddy-n" fill="#fff">
        <use xlink:href="#sp_buddy-m"/>
      </mask>
      <polygon fill="#3C425B" fill-rule="nonzero" points="34 30 34 10 17 0" mask="url(#sp_buddy-n)"/>
    </g>
    <polygon fill="#1A67FD" fill-opacity=".5" fill-rule="nonzero" points="21.5 19.9 23.7 22.1 22.6 23.2 21.5 24.3 15.4 30.4 13.2 28.2 19.3 22.1 13.3 16 15.5 13.8 21.5 19.9"/>
    <polygon fill="#D6FFFF" fill-rule="nonzero" points="23.7 21.1 21.5 18.9 13.3 27.2 15.5 29.4"/>
    <polygon fill="#D6FFFF" fill-rule="nonzero" points="15.5 12.8 13.3 15 21.5 23.3 23.7 21.1"/>
  </g>
</svg>
