<svg xmlns="http://www.w3.org/2000/svg" width="228" height="32" viewBox="0 0 228 32">
  <g fill="none" opacity=".25">
    <path fill="#3C425B" d="M86.8637681,14.4231884 L86.8637681,20.6376812 L100.498551,20.6376812 L100.498551,25.3217391 L81.2985507,25.3217391 L81.2985507,0 L100.22029,0 L100.22029,4.68405797 L86.8637681,4.68405797 L86.8637681,10.1101449 L99.1072464,10.1101449 L99.1072464,14.4231884 L86.8637681,14.4231884 Z M118.863768,7.00289855 L112.834783,15.5826087 L119.605797,25.3217391 L113.855072,25.3217391 L110.052174,19.5246377 L106.202899,25.3217391 L100.591304,25.3217391 L107.176812,15.6753623 L101.147826,7.00289855 L106.898551,7.00289855 L110.098551,11.7797101 L113.298551,7.00289855 L118.863768,7.00289855 Z M136.533333,9.46086957 C137.182609,10.342029 137.692754,11.4086957 138.110145,12.6144928 C138.434783,13.8202899 138.62029,15.0724638 138.62029,16.3710145 C138.62029,17.5768116 138.434783,18.7826087 138.110145,19.8956522 C137.785507,21.0086957 137.321739,22.0289855 136.626087,22.9101449 C135.976812,23.7913043 135.142029,24.4869565 134.121739,24.9971014 C133.101449,25.5072464 131.942029,25.7855072 130.597101,25.7855072 C129.437681,25.7855072 128.417391,25.5536232 127.443478,25.0898551 C126.469565,24.626087 125.681159,23.9304348 125.078261,23.0492754 L124.985507,23.0492754 L124.985507,31.7217391 L119.930435,31.7217391 L119.930435,7.00289855 L124.707246,7.00289855 L124.707246,9.32173913 L124.8,9.32173913 C125.402899,8.30144928 126.191304,7.6057971 127.118841,7.14202899 C128.046377,6.67826087 129.113043,6.44637681 130.226087,6.44637681 C131.663768,6.44637681 132.915942,6.72463768 133.936232,7.28115942 C135.002899,7.83768116 135.837681,8.57971014 136.533333,9.46086957 Z M133.286957,18.3652174 C133.426087,17.6695652 133.518841,16.9275362 133.518841,16.2318841 C133.518841,15.4898551 133.426087,14.7478261 133.286957,14.0521739 C133.147826,13.3565217 132.915942,12.7072464 132.544928,12.1507246 C132.22029,11.5942029 131.756522,11.1304348 131.2,10.8057971 C130.643478,10.4811594 129.947826,10.2956522 129.15942,10.2956522 C128.324638,10.2956522 127.628986,10.4811594 127.072464,10.8057971 C126.515942,11.1768116 126.052174,11.5942029 125.727536,12.1507246 C125.356522,12.6608696 125.124638,13.3101449 124.985507,14.0057971 C124.846377,14.7014493 124.753623,15.4434783 124.753623,16.1855072 C124.753623,16.9275362 124.846377,17.6695652 124.985507,18.3652174 C125.124638,19.0608696 125.402899,19.7101449 125.727536,20.2202899 C126.052174,20.7768116 126.515942,21.1942029 127.072464,21.5188406 C127.628986,21.8434783 128.324638,22.0289855 129.113043,22.0289855 C129.947826,22.0289855 130.643478,21.8434783 131.2,21.5188406 C131.756522,21.1942029 132.22029,20.7304348 132.544928,20.2202899 C132.915942,19.7101449 133.147826,19.0608696 133.286957,18.3652174 Z M155.176812,9.83188406 C155.918841,10.8521739 156.475362,12.0115942 156.753623,13.3101449 C157.078261,14.6086957 157.217391,15.9536232 157.124638,17.3913043 L143.907246,17.3913043 C144,19.0144928 144.417391,20.173913 145.15942,20.915942 C145.901449,21.657971 146.968116,22.0289855 148.405797,22.0289855 C149.426087,22.0289855 150.307246,21.7971014 151.049275,21.2869565 C151.791304,20.7768116 152.208696,20.2202899 152.394203,19.6637681 L156.753623,19.6637681 C156.057971,21.8898551 154.991304,23.4666667 153.507246,24.3942029 C152.023188,25.3681159 150.26087,25.8318841 148.173913,25.8318841 C146.736232,25.8318841 145.437681,25.6 144.278261,25.1362319 C143.118841,24.6724638 142.144928,24.0231884 141.356522,23.1884058 C140.568116,22.3072464 139.918841,21.2869565 139.501449,20.1275362 C139.084058,18.9681159 138.852174,17.6695652 138.852174,16.2318841 C138.852174,14.8405797 139.084058,13.542029 139.547826,12.3826087 C139.965217,11.2231884 140.614493,10.2028986 141.449275,9.32173913 C142.284058,8.44057971 143.257971,7.79130435 144.417391,7.28115942 C145.576812,6.77101449 146.828986,6.53913043 148.22029,6.53913043 C149.797101,6.53913043 151.142029,6.8173913 152.301449,7.42028986 C153.46087,8.02318841 154.434783,8.8115942 155.176812,9.83188406 Z M143.907246,14.1913043 L152.115942,14.1449275 C151.884058,12.8463768 151.466667,11.8724638 150.863768,11.2231884 C150.26087,10.573913 149.333333,10.2492754 148.127536,10.2492754 C147.33913,10.2492754 146.643478,10.3884058 146.133333,10.6666667 C145.576812,10.9449275 145.15942,11.2695652 144.834783,11.6869565 C144.510145,12.1043478 144.278261,12.5217391 144.13913,12.9855072 C144,13.4492754 143.953623,13.8202899 143.907246,14.1913043 Z M173.82029,8.57971014 C174.330435,9.22898551 174.701449,10.0173913 174.97971,10.9449275 C175.165217,11.8724638 175.257971,12.9391304 175.257971,14.0521739 L175.257971,25.3217391 L170.202899,25.3217391 L170.202899,14.9797101 C170.202899,13.4492754 169.971014,12.3362319 169.507246,11.5942029 C169.043478,10.8521739 168.208696,10.4811594 167.002899,10.4811594 C165.657971,10.4811594 164.637681,10.8521739 164.034783,11.6869565 C163.431884,12.5217391 163.107246,13.8666667 163.107246,15.7217391 L163.107246,25.3217391 L158.052174,25.3217391 L158.052174,7.00289855 L162.828986,7.00289855 L162.828986,9.55362319 L162.921739,9.55362319 C163.524638,8.48695652 164.35942,7.69855072 165.37971,7.23478261 C166.4,6.72463768 167.42029,6.49275362 168.486957,6.49275362 C169.831884,6.49275362 170.898551,6.67826087 171.77971,7.04927536 C172.66087,7.42028986 173.310145,7.93043478 173.82029,8.57971014 Z M190.794203,15.8144928 C191.350725,16.2318841 191.814493,16.6956522 192.092754,17.2985507 C192.417391,17.8550725 192.602899,18.5971014 192.602899,19.4318841 C192.602899,20.6376812 192.324638,21.6115942 191.86087,22.4463768 C191.350725,23.2347826 190.747826,23.884058 189.95942,24.3942029 C189.171014,24.9043478 188.289855,25.2753623 187.269565,25.4608696 C186.249275,25.6463768 185.228986,25.7391304 184.208696,25.7391304 C183.142029,25.7391304 182.121739,25.6463768 181.101449,25.4144928 C180.127536,25.1826087 179.2,24.857971 178.411594,24.3478261 C177.623188,23.884058 176.973913,23.2347826 176.463768,22.4 C175.953623,21.6115942 175.675362,20.5913043 175.628986,19.3391304 L180.405797,19.3391304 C180.405797,19.8956522 180.498551,20.3594203 180.730435,20.7304348 C180.962319,21.1478261 181.24058,21.4724638 181.611594,21.7043478 C181.936232,21.9826087 182.353623,22.1217391 182.817391,22.2608696 C183.281159,22.4 183.744928,22.4463768 184.255072,22.4463768 C184.626087,22.4463768 184.997101,22.4 185.368116,22.3072464 C185.73913,22.2608696 186.110145,22.1217391 186.434783,21.9362319 C186.75942,21.7507246 186.991304,21.5188406 187.223188,21.2405797 C187.455072,20.9623188 187.547826,20.5913043 187.547826,20.1275362 C187.547826,19.3391304 187.084058,18.7826087 186.063768,18.4115942 C185.043478,18.0405797 183.652174,17.6695652 181.843478,17.2985507 C181.101449,17.1130435 180.405797,16.9275362 179.710145,16.6956522 C179.014493,16.4637681 178.411594,16.1855072 177.855072,15.8144928 C177.344928,15.4434783 176.881159,14.9797101 176.556522,14.4231884 C176.231884,13.8666667 176.046377,13.1710145 176.046377,12.3826087 C176.046377,11.1768116 176.278261,10.2028986 176.742029,9.46086957 C177.205797,8.67246377 177.808696,8.06956522 178.550725,7.65217391 C179.292754,7.1884058 180.173913,6.91014493 181.101449,6.72463768 C182.075362,6.53913043 183.049275,6.44637681 184.023188,6.44637681 C184.997101,6.44637681 185.971014,6.53913043 186.898551,6.72463768 C187.826087,6.91014493 188.66087,7.23478261 189.402899,7.69855072 C190.098551,8.16231884 190.747826,8.76521739 191.211594,9.50724638 C191.721739,10.2492754 192,11.2231884 192.092754,12.3362319 L187.315942,12.3362319 C187.223188,11.4086957 186.852174,10.7130435 186.202899,10.3884058 C185.553623,10.0637681 184.765217,9.87826087 183.884058,9.87826087 C183.605797,9.87826087 183.281159,9.87826087 182.956522,9.92463768 C182.631884,9.97101449 182.353623,10.0173913 182.075362,10.1565217 C181.797101,10.2492754 181.565217,10.4347826 181.37971,10.6666667 C181.194203,10.8521739 181.101449,11.1768116 181.101449,11.5478261 C181.101449,12.0115942 181.286957,12.3826087 181.611594,12.6608696 C181.936232,12.9391304 182.4,13.1710145 182.910145,13.3565217 C183.42029,13.4956522 184.023188,13.6811594 184.718841,13.8202899 C185.414493,13.9594203 186.110145,14.0985507 186.805797,14.284058 C187.547826,14.4695652 188.243478,14.6550725 188.93913,14.8869565 C189.634783,15.1188406 190.237681,15.4434783 190.794203,15.8144928 Z M193.113043,0 L198.168116,0 L198.168116,4.12753623 L193.113043,4.12753623 L193.113043,0 Z M193.113043,7.00289855 L198.168116,7.00289855 L198.168116,25.3217391 L193.113043,25.3217391 L193.113043,7.00289855 Z M222.562319,7.00289855 L222.562319,6.91014493 L227.802899,6.91014493 L220.150725,27.5014493 C219.594203,28.9855072 218.852174,30.0521739 217.878261,30.7014493 C216.904348,31.3507246 215.55942,31.6753623 213.843478,31.6753623 C213.333333,31.6753623 212.823188,31.6753623 212.313043,31.6289855 C211.802899,31.5826087 211.292754,31.5362319 210.782609,31.4898551 L210.782609,27.3623188 C211.246377,27.4086957 211.710145,27.4550725 212.22029,27.5014493 C212.730435,27.5478261 213.194203,27.5942029 213.704348,27.5478261 C214.4,27.4550725 214.863768,27.2231884 215.188406,26.7594203 C215.513043,26.2956522 215.652174,25.8318841 215.652174,25.2753623 C215.652174,24.9043478 215.55942,24.5333333 215.42029,24.1623188 L210.272464,10.342029 L206.84058,10.342029 L206.84058,25.3217391 L201.785507,25.3217391 L201.785507,10.3884058 L198.771014,10.3884058 L198.771014,7.00289855 L201.831884,7.00289855 L201.831884,5.56521739 C201.831884,3.94202899 202.342029,2.59710145 203.362319,1.57681159 C204.382609,0.510144928 205.913043,0 207.953623,0 C208.417391,0 208.834783,0 209.298551,0.0463768116 C209.715942,0.0927536232 210.17971,0.0927536232 210.597101,0.139130435 L210.597101,3.89565217 C209.994203,3.84927536 209.391304,3.80289855 208.742029,3.80289855 C208.046377,3.80289855 207.536232,3.94202899 207.257971,4.26666667 C206.933333,4.59130435 206.794203,5.14782609 206.794203,5.88985507 L206.794203,7.00289855 L208.973913,7.00289855 L210.318841,7.00289855 L214.353623,7.00289855 L218.481159,19.5710145 L218.573913,19.5710145 L222.562319,7.00289855 Z M78.515942,22.9101449 C78.515942,24.2086957 77.4492754,25.2753623 76.1507246,25.2753623 L55.6057971,25.2753623 C54.3072464,25.2753623 53.2405797,24.2086957 53.2405797,22.9101449 L53.2405797,2.36521739 C53.2405797,1.06666667 54.3072464,0 55.6057971,0 L76.1507246,0 C77.4492754,0 78.515942,1.06666667 78.515942,2.36521739 L78.515942,22.9101449 Z M51.8956522,22.9101449 C51.8956522,24.2086957 50.8289855,25.2753623 49.5304348,25.2753623 L28.9855072,25.2753623 C27.6869565,25.2753623 26.6202899,24.2086957 26.6202899,22.9101449 L26.6202899,2.36521739 C26.6202899,1.06666667 27.6869565,0 28.9855072,0 L49.5304348,0 C50.8289855,0 51.8956522,1.06666667 51.8956522,2.36521739 L51.8956522,22.9101449 Z M25.2753623,22.9101449 C25.2753623,24.2086957 24.2086957,25.2753623 22.9101449,25.2753623 L2.36521739,25.2753623 C1.06666667,25.2753623 -3.15544362e-30,24.2086957 -3.15544362e-30,22.9101449 L-3.15544362e-30,2.36521739 C-3.15544362e-30,1.06666667 1.06666667,0 2.36521739,0 L22.9101449,0 C24.2086957,0 25.2753623,1.06666667 25.2753623,2.36521739 L25.2753623,22.9101449 Z"/>
    <path fill="#FFF" d="M73.1826087 3.75652174C74.342029 2.59710145 76.057971 4.31304348 74.8521739 5.51884058L70.0753623 10.2956522 72.7652174 21.0086957 71.0028986 22.7710145 66.5507246 13.9130435 62.9797101 17.484058 63.3043478 20.2202899 61.9130435 21.6115942 60.2898551 18.5043478 57.1826087 16.8811594 58.573913 15.4898551 61.3101449 15.8144928 64.8811594 12.2434783 56.0231884 7.79130435 57.7855072 6.02898551 68.4057971 8.57971014 73.1826087 3.75652174zM40.9971014 4.45217391L40.9971014 15.026087 42.1565217 15.026087 42.1565217 21.9826087C42.1565217 23.5130435 44.3362319 23.5594203 44.3362319 21.9826087L44.3362319 4.45217391C44.3362319 1.94782609 40.9971014 1.94782609 40.9971014 4.45217391zM38.4927536 9.32173913C38.4927536 9.97101449 37.8898551 10.7130435 37.1014493 10.7130435L37.1014493 22.0289855C37.1014493 23.6521739 34.9217391 23.6521739 34.9217391 22.0289855L34.9217391 10.6666667C34.1333333 10.6666667 33.484058 10.0637681 33.484058 9.1826087L33.484058 2.96811594C33.484058 2.4115942 34.2724638 2.4115942 34.2724638 2.96811594L34.2724638 7.55942029 34.9217391 7.55942029 34.9217391 2.92173913C34.9217391 2.4115942 35.6637681 2.4115942 35.6637681 2.92173913L35.6637681 7.55942029 36.3594203 7.55942029 36.3594203 2.92173913C36.3594203 2.4115942 37.1014493 2.36521739 37.1014493 2.92173913L37.1014493 7.51304348 37.7507246 7.51304348 37.7507246 2.87536232C37.7507246 2.36521739 38.4927536 2.31884058 38.4927536 2.87536232L38.4927536 9.32173913zM19.7565217 15.3971014C18.9681159 15.3971014 18.3188406 14.7478261 18.3188406 13.9130435 18.3188406 13.0782609 18.9681159 12.4289855 19.7565217 12.4289855 20.5449275 12.4289855 21.1942029 13.0782609 21.1942029 13.9130435 21.1942029 14.7478261 20.5449275 15.3971014 19.7565217 15.3971014zM12.7072464 10.8057971L6.02898551 10.8057971 7.28115942 7.37391304C7.42028986 6.91014493 7.69855072 6.53913043 8.25507246 6.53913043L12.7072464 6.53913043 17.1594203 6.53913043C17.715942 6.53913043 17.9478261 6.91014493 18.1333333 7.37391304L19.3855072 10.8057971 12.7072464 10.8057971zM5.65797101 15.3971014C4.86956522 15.3971014 4.22028986 14.7478261 4.22028986 13.9130435 4.22028986 13.0782609 4.86956522 12.4289855 5.65797101 12.4289855 6.44637681 12.4289855 7.09565217 13.0782609 7.09565217 13.9130435 7.09565217 14.7478261 6.44637681 15.3971014 5.65797101 15.3971014zM21.1478261 10.8521739L19.4782609 6.49275362C19.1536232 5.65797101 18.457971 4.96231884 17.1594203 4.96231884L14.7942029 4.96231884 14.7942029 3.6173913C14.7942029 3.38550725 14.6086957 3.2 14.3768116 3.2L11.1304348 3.2C10.8985507 3.2 10.7130435 3.38550725 10.7130435 3.6173913L10.7130435 4.91594203 8.30144928 4.91594203C7.00289855 4.91594203 6.30724638 5.6115942 5.9826087 6.44637681L4.31304348 10.8057971C3.66376812 10.8985507 2.45797101 11.6869565 2.45797101 13.1710145L2.45797101 18.7362319 4.08115942 18.7362319 4.08115942 20.4985507C4.08115942 22.6782609 7.1884058 22.6782609 7.1884058 20.4985507L7.1884058 18.7362319 12.7536232 18.7362319 18.3188406 18.7362319 18.3188406 20.4985507C18.3188406 22.6782609 21.426087 22.6782609 21.426087 20.4985507L21.426087 18.7362319 23.0492754 18.7362319 23.0492754 13.1710145C23.0028986 11.7333333 21.7971014 10.9449275 21.1478261 10.8521739z"/>
  </g>
</svg>
