<svg xmlns="http://www.w3.org/2000/svg" width="139" height="23" viewBox="0 0 139 23">
  <path fill="#3C425B" fill-rule="evenodd" d="M828.600586,23.0566406 C828.502929,24.1015677 828.258791,25.0659135 827.868164,25.949707 C827.477537,26.8335005 826.93555,27.597653 826.242188,28.2421875 C825.548825,28.886722 824.701665,29.3896466 823.700684,29.7509766 C822.699702,30.1123065 821.544928,30.2929688 820.236328,30.2929688 C818.927728,30.2929688 817.743658,30.0561547 816.684082,29.5825195 C815.624506,29.1088844 814.721195,28.435063 813.974121,27.5610352 C813.227047,26.6870073 812.653322,25.629889 812.25293,24.3896484 C811.852537,23.1494079 811.652344,21.7578202 811.652344,20.2148438 L811.652344,18.4863281 C811.652344,16.9531173 811.85742,15.5639711 812.267578,14.3188477 C812.677736,13.0737242 813.263668,12.0117231 814.025391,11.1328125 C814.787113,10.2539019 815.707514,9.57519771 816.786621,9.09667969 C817.865728,8.61816167 819.074212,8.37890625 820.412109,8.37890625 C821.681647,8.37890625 822.804683,8.56200989 823.78125,8.92822266 C824.757817,9.29443542 825.585446,9.80224285 826.26416,10.4516602 C826.942874,11.1010775 827.475096,11.8749955 827.86084,12.7734375 C828.246584,13.6718795 828.493164,14.653315 828.600586,15.7177734 L824.90918,15.7177734 C824.831054,15.0439419 824.696778,14.4384792 824.506348,13.9013672 C824.315917,13.3642551 824.044924,12.9077167 823.693359,12.5317383 C823.341795,12.1557598 822.897464,11.8701182 822.360352,11.6748047 C821.82324,11.4794912 821.173832,11.3818359 820.412109,11.3818359 C819.572261,11.3818359 818.837405,11.5405258 818.20752,11.8579102 C817.577634,12.1752946 817.052736,12.6342743 816.632812,13.2348633 C816.212889,13.8354522 815.89795,14.5751909 815.687988,15.4541016 C815.478026,16.3330122 815.373047,17.3339788 815.373047,18.4570312 L815.373047,20.2148438 C815.373047,21.2793022 815.465819,22.2460894 815.651367,23.1152344 C815.836915,23.9843793 816.124998,24.7290008 816.515625,25.3491211 C816.906252,25.9692414 817.409177,26.4501936 818.024414,26.7919922 C818.639652,27.1337908 819.376949,27.3046875 820.236328,27.3046875 C821.037113,27.3046875 821.713376,27.211915 822.265137,27.0263672 C822.816897,26.8408194 823.273436,26.5673846 823.634766,26.2060547 C823.996096,25.8447248 824.276854,25.4003933 824.477051,24.8730469 C824.677247,24.3457005 824.821289,23.7402378 824.90918,23.0566406 L828.600586,23.0566406 Z M841.037109,30 C840.939453,29.8144522 840.858887,29.5947278 840.79541,29.3408203 C840.731933,29.0869128 840.675781,28.813478 840.626953,28.5205078 C840.392577,28.7646497 840.131349,28.9941396 839.843262,29.2089844 C839.555174,29.4238292 839.237795,29.6118156 838.891113,29.7729492 C838.544432,29.9340828 838.168459,30.0610347 837.763184,30.1538086 C837.357908,30.2465825 836.925784,30.2929688 836.466797,30.2929688 C835.675777,30.2929688 834.948246,30.173341 834.28418,29.934082 C833.620114,29.694823 833.051272,29.3627951 832.577637,28.9379883 C832.104002,28.5131815 831.732911,28.0126982 831.464355,27.4365234 C831.195799,26.8603487 831.061523,26.2353549 831.061523,25.5615234 C831.061523,24.7119098 831.222655,23.9599642 831.544922,23.3056641 C831.867189,22.6513639 832.335934,22.1044944 832.951172,21.6650391 C833.566409,21.2255837 834.320796,20.8911144 835.214355,20.6616211 C836.107915,20.4321278 837.125971,20.3173828 838.268555,20.3173828 L840.509766,20.3173828 L840.509766,19.2773438 C840.509766,18.4570271 840.280276,17.8002954 839.821289,17.3071289 C839.362302,16.8139624 838.664067,16.5673828 837.726562,16.5673828 C837.306639,16.5673828 836.925783,16.6235346 836.583984,16.7358398 C836.242186,16.8481451 835.951661,16.9995108 835.712402,17.1899414 C835.473143,17.380372 835.287598,17.6074206 835.155762,17.8710938 C835.023925,18.1347669 834.958008,18.4179672 834.958008,18.7207031 L831.398438,18.7207031 C831.398438,18.0957 831.552245,17.4926787 831.859863,16.9116211 C832.167482,16.3305635 832.604489,15.8129906 833.170898,15.3588867 C833.737308,14.9047829 834.423336,14.541017 835.229004,14.2675781 C836.034672,13.9941393 836.935542,13.8574219 837.931641,13.8574219 C838.820317,13.8574219 839.640621,13.9721668 840.392578,14.2016602 C841.144535,14.4311535 841.793943,14.7729469 842.34082,15.2270508 C842.887698,15.6811546 843.312498,16.2475552 843.615234,16.9262695 C843.91797,17.6049839 844.069336,18.398433 844.069336,19.3066406 L844.069336,26.3378906 C844.069336,27.763679 844.269529,28.9013629 844.669922,29.7509766 L844.669922,30 L841.037109,30 Z M837.125977,27.4365234 C837.536135,27.4365234 837.919432,27.382813 838.275879,27.2753906 C838.632326,27.1679682 838.954588,27.0263681 839.242676,26.8505859 C839.530763,26.6748038 839.782225,26.4721691 839.99707,26.2426758 C840.211915,26.0131824 840.382812,25.7812512 840.509766,25.546875 L840.509766,22.5585938 L838.59082,22.5585938 C837.272454,22.5585938 836.281253,22.7880836 835.617188,23.2470703 C834.953122,23.706057 834.621094,24.3554646 834.621094,25.1953125 C834.621094,25.5175797 834.674804,25.8154283 834.782227,26.0888672 C834.889649,26.3623061 835.05078,26.5991201 835.265625,26.7993164 C835.48047,26.9995127 835.741698,27.1557612 836.049316,27.2680664 C836.356935,27.3803717 836.715818,27.4365234 837.125977,27.4365234 Z M851.144531,14.1503906 L851.24707,15.8056641 C851.774417,15.1904266 852.4165,14.7119158 853.17334,14.3701172 C853.93018,14.0283186 854.811518,13.8574219 855.817383,13.8574219 C856.784185,13.8574219 857.648434,14.050291 858.410156,14.4360352 C859.171879,14.8217793 859.75781,15.4394489 860.167969,16.2890625 C860.695315,15.5468713 861.361812,14.9560569 862.16748,14.5166016 C862.973149,14.0771462 863.927729,13.8574219 865.03125,13.8574219 C865.851567,13.8574219 866.583981,13.9672841 867.228516,14.1870117 C867.87305,14.4067394 868.417478,14.7534156 868.861816,15.2270508 C869.306155,15.700686 869.647948,16.30859 869.887207,17.0507812 C870.126466,17.7929725 870.246094,18.6865182 870.246094,19.7314453 L870.246094,30 L866.686523,30 L866.686523,19.7167969 C866.686523,19.1308564 866.620606,18.6499042 866.48877,18.2739258 C866.356933,17.8979473 866.166505,17.5976574 865.91748,17.3730469 C865.668456,17.1484364 865.370607,16.9921879 865.023926,16.9042969 C864.677244,16.8164058 864.284182,16.7724609 863.844727,16.7724609 C863.034176,16.7724609 862.372561,16.9897439 861.859863,17.4243164 C861.347165,17.8588889 860.988282,18.4277309 860.783203,19.1308594 C860.783203,19.1796877 860.785645,19.2309568 860.790527,19.284668 C860.79541,19.3383792 860.797852,19.3896482 860.797852,19.4384766 L860.797852,30 L857.238281,30 L857.238281,19.7607422 C857.238281,19.2040988 857.172364,18.7353535 857.040527,18.3544922 C856.908691,17.9736309 856.718263,17.6660168 856.469238,17.4316406 C856.220214,17.1972645 855.919924,17.0288091 855.568359,16.9262695 C855.216795,16.82373 854.821291,16.7724609 854.381836,16.7724609 C853.620113,16.7724609 852.992678,16.9287094 852.499512,17.2412109 C852.006345,17.5537125 851.623048,17.9785129 851.349609,18.515625 L851.349609,30 L847.790039,30 L847.790039,14.1503906 L851.144531,14.1503906 Z M880.880859,30.2929688 C879.708979,30.2929688 878.654302,30.0976582 877.716797,29.7070312 C876.779292,29.3164043 875.983402,28.7793003 875.329102,28.0957031 C874.674801,27.412106 874.171877,26.6015672 873.820312,25.6640625 C873.468748,24.7265578 873.292969,23.7158257 873.292969,22.6318359 L873.292969,22.0458984 C873.292969,20.7958922 873.478514,19.6655324 873.849609,18.6547852 C874.220705,17.6440379 874.728512,16.7846715 875.373047,16.0766602 C876.017581,15.3686488 876.776851,14.8217793 877.650879,14.4360352 C878.524907,14.050291 879.464839,13.8574219 880.470703,13.8574219 C881.623053,13.8574219 882.624019,14.050291 883.473633,14.4360352 C884.323246,14.8217793 885.026364,15.3613247 885.583008,16.0546875 C886.139651,16.7480503 886.554686,17.5732374 886.828125,18.5302734 C887.101564,19.4873095 887.238281,20.5371037 887.238281,21.6796875 L887.238281,23.203125 L876.881836,23.203125 C876.930664,23.8183625 877.060058,24.384763 877.27002,24.9023438 C877.479982,25.4199245 877.765623,25.8666973 878.126953,26.2426758 C878.488283,26.6186542 878.915525,26.9140614 879.408691,27.1289062 C879.901858,27.3437511 880.460934,27.4511719 881.085938,27.4511719 C881.964848,27.4511719 882.729001,27.2753924 883.378418,26.9238281 C884.027835,26.5722639 884.591794,26.0888703 885.070312,25.4736328 L886.989258,27.3046875 C886.73535,27.6855488 886.420412,28.0541974 886.044434,28.4106445 C885.668455,28.7670916 885.229006,29.0844713 884.726074,29.362793 C884.223142,29.6411147 883.6543,29.8657218 883.019531,30.0366211 C882.384762,30.2075204 881.671879,30.2929688 880.880859,30.2929688 Z M880.456055,16.7138672 C879.479487,16.7138672 878.690921,17.0556606 878.090332,17.7392578 C877.489743,18.422855 877.106446,19.3749939 876.94043,20.5957031 L883.722656,20.5957031 L883.722656,20.3320312 C883.693359,19.8632789 883.617676,19.4116233 883.495605,18.9770508 C883.373535,18.5424783 883.185548,18.15674 882.931641,17.8198242 C882.677733,17.4829085 882.348147,17.2143565 881.942871,17.0141602 C881.537596,16.8139638 881.041995,16.7138672 880.456055,16.7138672 Z M898.297852,17.4023438 C898.063475,17.3632811 897.826661,17.3339845 897.587402,17.3144531 C897.348143,17.2949218 897.101564,17.2851562 896.847656,17.2851562 C895.988277,17.2851562 895.290042,17.4511702 894.75293,17.7832031 C894.215818,18.115236 893.815431,18.5742158 893.551758,19.1601562 L893.551758,30 L889.992188,30 L889.992188,14.1503906 L893.390625,14.1503906 L893.478516,15.9228516 C893.878908,15.2783171 894.374509,14.772951 894.965332,14.4067383 C895.556155,14.0405255 896.251949,13.8574219 897.052734,13.8574219 C897.257814,13.8574219 897.489745,13.8793943 897.748535,13.9233398 C898.007326,13.9672854 898.195312,14.0136716 898.3125,14.0625 L898.297852,17.4023438 Z M910.016602,30 C909.918945,29.8144522 909.838379,29.5947278 909.774902,29.3408203 C909.711425,29.0869128 909.655274,28.813478 909.606445,28.5205078 C909.372069,28.7646497 909.110841,28.9941396 908.822754,29.2089844 C908.534667,29.4238292 908.217287,29.6118156 907.870605,29.7729492 C907.523924,29.9340828 907.147951,30.0610347 906.742676,30.1538086 C906.3374,30.2465825 905.905276,30.2929688 905.446289,30.2929688 C904.655269,30.2929688 903.927738,30.173341 903.263672,29.934082 C902.599606,29.694823 902.030764,29.3627951 901.557129,28.9379883 C901.083494,28.5131815 900.712404,28.0126982 900.443848,27.4365234 C900.175292,26.8603487 900.041016,26.2353549 900.041016,25.5615234 C900.041016,24.7119098 900.202147,23.9599642 900.524414,23.3056641 C900.846681,22.6513639 901.315427,22.1044944 901.930664,21.6650391 C902.545902,21.2255837 903.300289,20.8911144 904.193848,20.6616211 C905.087407,20.4321278 906.105463,20.3173828 907.248047,20.3173828 L909.489258,20.3173828 L909.489258,19.2773438 C909.489258,18.4570271 909.259768,17.8002954 908.800781,17.3071289 C908.341795,16.8139624 907.643559,16.5673828 906.706055,16.5673828 C906.286131,16.5673828 905.905275,16.6235346 905.563477,16.7358398 C905.221678,16.8481451 904.931154,16.9995108 904.691895,17.1899414 C904.452636,17.380372 904.267091,17.6074206 904.135254,17.8710938 C904.003417,18.1347669 903.9375,18.4179672 903.9375,18.7207031 L900.37793,18.7207031 C900.37793,18.0957 900.531737,17.4926787 900.839355,16.9116211 C901.146974,16.3305635 901.583982,15.8129906 902.150391,15.3588867 C902.7168,14.9047829 903.402828,14.541017 904.208496,14.2675781 C905.014164,13.9941393 905.915034,13.8574219 906.911133,13.8574219 C907.799809,13.8574219 908.620113,13.9721668 909.37207,14.2016602 C910.124027,14.4311535 910.773435,14.7729469 911.320312,15.2270508 C911.86719,15.6811546 912.291991,16.2475552 912.594727,16.9262695 C912.897462,17.6049839 913.048828,18.398433 913.048828,19.3066406 L913.048828,26.3378906 C913.048828,27.763679 913.249021,28.9013629 913.649414,29.7509766 L913.649414,30 L910.016602,30 Z M906.105469,27.4365234 C906.515627,27.4365234 906.898924,27.382813 907.255371,27.2753906 C907.611818,27.1679682 907.934081,27.0263681 908.222168,26.8505859 C908.510255,26.6748038 908.761718,26.4721691 908.976562,26.2426758 C909.191407,26.0131824 909.362304,25.7812512 909.489258,25.546875 L909.489258,22.5585938 L907.570312,22.5585938 C906.251947,22.5585938 905.260746,22.7880836 904.59668,23.2470703 C903.932614,23.706057 903.600586,24.3554646 903.600586,25.1953125 C903.600586,25.5175797 903.654296,25.8154283 903.761719,26.0888672 C903.869141,26.3623061 904.030272,26.5991201 904.245117,26.7993164 C904.459962,26.9995127 904.72119,27.1557612 905.028809,27.2680664 C905.336427,27.3803717 905.69531,27.4365234 906.105469,27.4365234 Z M922.848633,20.0830078 L920.241211,22.7929688 L920.241211,30 L917.428711,30 L917.428711,8.671875 L920.241211,8.671875 L920.241211,19.21875 L922.555664,16.640625 L929.71875,8.671875 L933.117188,8.671875 L924.723633,18.0908203 L933.776367,30 L930.407227,30 L922.848633,20.0830078 Z M938.756836,30 L936.046875,30 L936.046875,14.1503906 L938.756836,14.1503906 L938.756836,30 Z M935.827148,9.94628906 C935.827148,9.50683374 935.961424,9.1357437 936.22998,8.83300781 C936.498536,8.53027192 936.896482,8.37890625 937.423828,8.37890625 C937.951175,8.37890625 938.351561,8.53027192 938.625,8.83300781 C938.898439,9.1357437 939.035156,9.50683374 939.035156,9.94628906 C939.035156,10.3857444 938.898439,10.7519517 938.625,11.0449219 C938.351561,11.3378921 937.951175,11.484375 937.423828,11.484375 C936.896482,11.484375 936.498536,11.3378921 936.22998,11.0449219 C935.961424,10.7519517 935.827148,10.3857444 935.827148,9.94628906 Z M946.769531,10.3125 L946.769531,14.1503906 L949.728516,14.1503906 L949.728516,16.2451172 L946.769531,16.2451172 L946.769531,26.0742188 C946.769531,26.4843771 946.818359,26.8139636 946.916016,27.0629883 C947.013672,27.312013 947.143066,27.5048821 947.304199,27.6416016 C947.465333,27.778321 947.650878,27.8686521 947.86084,27.9125977 C948.070802,27.9565432 948.288085,27.9785156 948.512695,27.9785156 C948.737306,27.9785156 948.97412,27.9565432 949.223145,27.9125977 C949.472169,27.8686521 949.665038,27.8320314 949.801758,27.8027344 L949.801758,30 C949.586913,30.058594 949.308595,30.12207 948.966797,30.1904297 C948.624998,30.2587894 948.209963,30.2929688 947.72168,30.2929688 C947.22363,30.2929688 946.752444,30.2221687 946.308105,30.0805664 C945.863767,29.9389641 945.475588,29.7021501 945.143555,29.3701172 C944.811522,29.0380843 944.547853,28.6010769 944.352539,28.059082 C944.157226,27.5170871 944.05957,26.8505899 944.05957,26.0595703 L944.05957,16.2451172 L941.173828,16.2451172 L941.173828,14.1503906 L944.05957,14.1503906 L944.05957,10.3125 L946.769531,10.3125 Z" transform="translate(-811 -8)"/>
</svg>
